<svg width="442" height="502" viewBox="0 0 442 502" fill="none" xmlns="http://www.w3.org/2000/svg">
<path opacity="0.3" d="M299.035 0.0599995H300.995L304.649 10H302.661L301.737 7.522H298.265L297.355 10H295.367L299.035 0.0599995ZM301.387 6.164L300.015 2.062L298.587 6.164H301.387ZM303.615 21.06C303.615 21.676 303.447 22.2173 303.111 22.684C302.785 23.1413 302.346 23.496 301.795 23.748C301.245 24 300.643 24.126 299.989 24.126C299.327 24.126 298.72 23.9953 298.169 23.734C297.628 23.4633 297.194 23.0947 296.867 22.628C296.55 22.152 296.391 21.606 296.391 20.99C296.391 20.6167 296.471 20.2807 296.629 19.982C296.788 19.674 296.984 19.4127 297.217 19.198C297.46 18.9833 297.703 18.8107 297.945 18.68C297.6 18.512 297.306 18.26 297.063 17.924C296.821 17.588 296.699 17.2193 296.699 16.818C296.699 16.37 296.797 15.978 296.993 15.642C297.189 15.2967 297.451 15.0073 297.777 14.774C298.104 14.5407 298.459 14.3633 298.841 14.242C299.233 14.1207 299.621 14.06 300.003 14.06C300.377 14.06 300.759 14.1207 301.151 14.242C301.543 14.354 301.903 14.5267 302.229 14.76C302.556 14.9933 302.817 15.2827 303.013 15.628C303.219 15.964 303.321 16.356 303.321 16.804C303.321 17.2053 303.195 17.5787 302.943 17.924C302.691 18.2693 302.388 18.5213 302.033 18.68C302.444 18.8853 302.808 19.1933 303.125 19.604C303.452 20.0053 303.615 20.4907 303.615 21.06ZM298.603 16.874C298.603 17.126 298.673 17.3407 298.813 17.518C298.953 17.6953 299.131 17.8307 299.345 17.924C299.56 18.008 299.779 18.05 300.003 18.05C300.218 18.05 300.433 18.008 300.647 17.924C300.862 17.8307 301.039 17.6953 301.179 17.518C301.329 17.3407 301.403 17.1213 301.403 16.86C301.403 16.5147 301.263 16.2393 300.983 16.034C300.703 15.8287 300.372 15.726 299.989 15.726C299.616 15.726 299.289 15.8333 299.009 16.048C298.739 16.2533 298.603 16.5287 298.603 16.874ZM301.711 20.948C301.711 20.6307 301.627 20.3647 301.459 20.15C301.291 19.926 301.077 19.758 300.815 19.646C300.554 19.5247 300.279 19.464 299.989 19.464C299.691 19.464 299.411 19.5247 299.149 19.646C298.897 19.7673 298.692 19.94 298.533 20.164C298.375 20.388 298.295 20.6493 298.295 20.948C298.295 21.2467 298.379 21.508 298.547 21.732C298.715 21.9467 298.93 22.1193 299.191 22.25C299.453 22.3713 299.723 22.432 300.003 22.432C300.302 22.432 300.577 22.3667 300.829 22.236C301.091 22.1053 301.301 21.9327 301.459 21.718C301.627 21.494 301.711 21.2373 301.711 20.948ZM301.431 34.696C302.009 34.7893 302.476 35.0693 302.831 35.536C303.195 35.9933 303.377 36.544 303.377 37.188C303.377 37.776 303.227 38.2847 302.929 38.714C302.63 39.1433 302.205 39.4747 301.655 39.708C301.113 39.9413 300.474 40.058 299.737 40.058C298.318 40.058 297.235 39.61 296.489 38.714L297.553 37.384C297.795 37.692 298.085 37.93 298.421 38.098C298.766 38.266 299.186 38.35 299.681 38.35C300.25 38.35 300.684 38.2333 300.983 38C301.281 37.776 301.431 37.4353 301.431 36.978C301.431 36.4927 301.258 36.1193 300.913 35.858C300.567 35.5967 300.045 35.466 299.345 35.466H298.953V34.066H299.387C299.956 34.066 300.399 33.94 300.717 33.688C301.043 33.4267 301.207 33.0953 301.207 32.694C301.207 32.3207 301.076 32.0407 300.815 31.854C300.553 31.658 300.213 31.56 299.793 31.56C298.925 31.56 298.262 31.9333 297.805 32.68L296.629 31.364C296.825 31.084 297.091 30.8367 297.427 30.622C297.772 30.4073 298.164 30.2393 298.603 30.118C299.051 29.9967 299.517 29.936 300.003 29.936C300.637 29.936 301.193 30.0387 301.669 30.244C302.154 30.4493 302.532 30.7387 302.803 31.112C303.073 31.4853 303.209 31.9193 303.209 32.414C303.209 32.7873 303.134 33.1373 302.985 33.464C302.835 33.7813 302.625 34.052 302.355 34.276C302.093 34.4907 301.785 34.6307 301.431 34.696ZM299.792 54.086C299.073 54.086 298.425 53.932 297.846 53.624C297.267 53.316 296.829 52.896 296.53 52.364L297.608 51.244C297.869 51.608 298.196 51.8973 298.588 52.112C298.98 52.3267 299.386 52.434 299.806 52.434C300.31 52.434 300.721 52.28 301.038 51.972C301.365 51.664 301.528 51.2627 301.528 50.768C301.528 50.2827 301.374 49.8907 301.066 49.592C300.758 49.2933 300.375 49.144 299.918 49.144C299.61 49.144 299.321 49.214 299.05 49.354C298.789 49.4847 298.579 49.676 298.42 49.928H296.782L297.93 44.006H302.83V45.714H299.288L298.882 47.94C298.994 47.828 299.157 47.7347 299.372 47.66C299.596 47.576 299.867 47.534 300.184 47.534C300.809 47.534 301.365 47.6693 301.85 47.94C302.345 48.2107 302.732 48.5887 303.012 49.074C303.301 49.55 303.446 50.1007 303.446 50.726C303.446 51.398 303.287 51.986 302.97 52.49C302.653 52.994 302.219 53.386 301.668 53.666C301.117 53.946 300.492 54.086 299.792 54.086ZM295.635 60.96C295.635 60.3533 295.743 59.756 295.957 59.168C296.181 58.58 296.503 58.048 296.923 57.572C297.343 57.096 297.857 56.718 298.463 56.438C299.07 56.1487 299.761 56.004 300.535 56.004C301.441 56.004 302.229 56.2047 302.901 56.606C303.573 57.0073 304.073 57.53 304.399 58.174L302.915 59.196C302.747 58.8227 302.528 58.5287 302.257 58.314C301.987 58.0993 301.693 57.9453 301.375 57.852C301.067 57.7587 300.769 57.712 300.479 57.712C299.994 57.712 299.569 57.81 299.205 58.006C298.851 58.202 298.552 58.4587 298.309 58.776C298.067 59.0933 297.885 59.448 297.763 59.84C297.651 60.232 297.595 60.624 297.595 61.016C297.595 61.604 297.717 62.1547 297.959 62.668C298.202 63.172 298.543 63.5827 298.981 63.9C299.42 64.2173 299.929 64.376 300.507 64.376C300.806 64.376 301.114 64.3247 301.431 64.222C301.758 64.1193 302.057 63.956 302.327 63.732C302.598 63.508 302.808 63.2187 302.957 62.864L304.539 63.774C304.334 64.2687 304.012 64.6887 303.573 65.034C303.135 65.37 302.64 65.6313 302.089 65.818C301.539 65.9953 300.993 66.084 300.451 66.084C299.742 66.084 299.093 65.9393 298.505 65.65C297.927 65.3513 297.423 64.9593 296.993 64.474C296.564 63.9793 296.228 63.4287 295.985 62.822C295.752 62.206 295.635 61.5853 295.635 60.96ZM303.734 78.306V80H296.832V70.06H303.608V71.754H298.764V74.148H302.95V75.716H298.764V78.306H303.734ZM300.369 95.778V93.692H296.281V92.026L300.971 86.006H302.245V92.012H303.477V93.692H302.245V95.778H300.369ZM298.157 92.012H300.579V88.848L298.157 92.012ZM299.035 98.06H300.995L304.649 108H302.661L301.737 105.522H298.265L297.355 108H295.367L299.035 98.06ZM301.387 104.164L300.015 100.062L298.587 104.164H301.387ZM303.686 118.682C303.686 119.326 303.523 119.909 303.196 120.432C302.879 120.955 302.445 121.37 301.894 121.678C301.353 121.986 300.737 122.14 300.046 122.14C299.299 122.14 298.651 121.958 298.1 121.594C297.549 121.23 297.125 120.707 296.826 120.026C296.537 119.345 296.392 118.528 296.392 117.576C296.392 115.765 296.737 114.384 297.428 113.432C298.128 112.471 299.066 111.99 300.242 111.99C300.867 111.99 301.441 112.125 301.964 112.396C302.496 112.667 302.944 113.054 303.308 113.558L302.23 114.734C302.006 114.389 301.717 114.118 301.362 113.922C301.007 113.717 300.625 113.614 300.214 113.614C299.589 113.614 299.089 113.866 298.716 114.37C298.343 114.865 298.147 115.56 298.128 116.456C298.324 116.12 298.604 115.854 298.968 115.658C299.332 115.462 299.747 115.364 300.214 115.364C300.867 115.364 301.455 115.513 301.978 115.812C302.501 116.101 302.916 116.498 303.224 117.002C303.532 117.497 303.686 118.057 303.686 118.682ZM300.06 120.558C300.387 120.558 300.69 120.474 300.97 120.306C301.25 120.129 301.474 119.9 301.642 119.62C301.81 119.331 301.894 119.018 301.894 118.682C301.894 118.346 301.81 118.043 301.642 117.772C301.474 117.492 301.25 117.273 300.97 117.114C300.69 116.946 300.387 116.862 300.06 116.862C299.724 116.862 299.416 116.946 299.136 117.114C298.856 117.273 298.632 117.492 298.464 117.772C298.305 118.043 298.226 118.346 298.226 118.682C298.226 119.018 298.31 119.331 298.478 119.62C298.646 119.9 298.865 120.129 299.136 120.306C299.416 120.474 299.724 120.558 300.06 120.558ZM304.286 133.438C304.286 133.998 304.142 134.469 303.852 134.852C303.563 135.225 303.171 135.51 302.676 135.706C302.191 135.902 301.659 136 301.08 136H296.278V126.06H301.598C302.065 126.06 302.466 126.186 302.802 126.438C303.138 126.681 303.4 126.998 303.586 127.39C303.773 127.782 303.866 128.183 303.866 128.594C303.866 129.079 303.745 129.537 303.502 129.966C303.26 130.386 302.905 130.699 302.438 130.904C303.008 131.072 303.456 131.375 303.782 131.814C304.118 132.253 304.286 132.794 304.286 133.438ZM298.21 127.712V130.218H300.786C301.104 130.218 301.379 130.106 301.612 129.882C301.846 129.658 301.962 129.35 301.962 128.958C301.962 128.585 301.855 128.286 301.64 128.062C301.435 127.829 301.178 127.712 300.87 127.712H298.21ZM302.34 133.074C302.34 132.71 302.228 132.397 302.004 132.136C301.78 131.875 301.505 131.744 301.178 131.744H298.21V134.362H301.08C301.435 134.362 301.734 134.236 301.976 133.984C302.219 133.732 302.34 133.429 302.34 133.074ZM295.635 144.96C295.635 144.353 295.743 143.756 295.957 143.168C296.181 142.58 296.503 142.048 296.923 141.572C297.343 141.096 297.857 140.718 298.463 140.438C299.07 140.149 299.761 140.004 300.535 140.004C301.441 140.004 302.229 140.205 302.901 140.606C303.573 141.007 304.073 141.53 304.399 142.174L302.915 143.196C302.747 142.823 302.528 142.529 302.257 142.314C301.987 142.099 301.693 141.945 301.375 141.852C301.067 141.759 300.769 141.712 300.479 141.712C299.994 141.712 299.569 141.81 299.205 142.006C298.851 142.202 298.552 142.459 298.309 142.776C298.067 143.093 297.885 143.448 297.763 143.84C297.651 144.232 297.595 144.624 297.595 145.016C297.595 145.604 297.717 146.155 297.959 146.668C298.202 147.172 298.543 147.583 298.981 147.9C299.42 148.217 299.929 148.376 300.507 148.376C300.806 148.376 301.114 148.325 301.431 148.222C301.758 148.119 302.057 147.956 302.327 147.732C302.598 147.508 302.808 147.219 302.957 146.864L304.539 147.774C304.334 148.269 304.012 148.689 303.573 149.034C303.135 149.37 302.64 149.631 302.089 149.818C301.539 149.995 300.993 150.084 300.451 150.084C299.742 150.084 299.093 149.939 298.505 149.65C297.927 149.351 297.423 148.959 296.993 148.474C296.564 147.979 296.228 147.429 295.985 146.822C295.752 146.206 295.635 145.585 295.635 144.96ZM303.615 161.06C303.615 161.676 303.447 162.217 303.111 162.684C302.785 163.141 302.346 163.496 301.795 163.748C301.245 164 300.643 164.126 299.989 164.126C299.327 164.126 298.72 163.995 298.169 163.734C297.628 163.463 297.194 163.095 296.867 162.628C296.55 162.152 296.391 161.606 296.391 160.99C296.391 160.617 296.471 160.281 296.629 159.982C296.788 159.674 296.984 159.413 297.217 159.198C297.46 158.983 297.703 158.811 297.945 158.68C297.6 158.512 297.306 158.26 297.063 157.924C296.821 157.588 296.699 157.219 296.699 156.818C296.699 156.37 296.797 155.978 296.993 155.642C297.189 155.297 297.451 155.007 297.777 154.774C298.104 154.541 298.459 154.363 298.841 154.242C299.233 154.121 299.621 154.06 300.003 154.06C300.377 154.06 300.759 154.121 301.151 154.242C301.543 154.354 301.903 154.527 302.229 154.76C302.556 154.993 302.817 155.283 303.013 155.628C303.219 155.964 303.321 156.356 303.321 156.804C303.321 157.205 303.195 157.579 302.943 157.924C302.691 158.269 302.388 158.521 302.033 158.68C302.444 158.885 302.808 159.193 303.125 159.604C303.452 160.005 303.615 160.491 303.615 161.06ZM298.603 156.874C298.603 157.126 298.673 157.341 298.813 157.518C298.953 157.695 299.131 157.831 299.345 157.924C299.56 158.008 299.779 158.05 300.003 158.05C300.218 158.05 300.433 158.008 300.647 157.924C300.862 157.831 301.039 157.695 301.179 157.518C301.329 157.341 301.403 157.121 301.403 156.86C301.403 156.515 301.263 156.239 300.983 156.034C300.703 155.829 300.372 155.726 299.989 155.726C299.616 155.726 299.289 155.833 299.009 156.048C298.739 156.253 298.603 156.529 298.603 156.874ZM301.711 160.948C301.711 160.631 301.627 160.365 301.459 160.15C301.291 159.926 301.077 159.758 300.815 159.646C300.554 159.525 300.279 159.464 299.989 159.464C299.691 159.464 299.411 159.525 299.149 159.646C298.897 159.767 298.692 159.94 298.533 160.164C298.375 160.388 298.295 160.649 298.295 160.948C298.295 161.247 298.379 161.508 298.547 161.732C298.715 161.947 298.93 162.119 299.191 162.25C299.453 162.371 299.723 162.432 300.003 162.432C300.302 162.432 300.577 162.367 300.829 162.236C301.091 162.105 301.301 161.933 301.459 161.718C301.627 161.494 301.711 161.237 301.711 160.948ZM303.121 176.306V178H297.437V176.306H299.425V172.064C299.313 172.204 299.122 172.353 298.851 172.512C298.59 172.671 298.3 172.806 297.983 172.918C297.675 173.03 297.4 173.086 297.157 173.086V171.336C297.325 171.336 297.526 171.285 297.759 171.182C298.002 171.07 298.24 170.939 298.473 170.79C298.716 170.641 298.921 170.496 299.089 170.356C299.266 170.207 299.378 170.09 299.425 170.006H301.343V176.306H303.121ZM303.61 187.898C303.61 188.719 303.452 189.452 303.134 190.096C302.826 190.731 302.397 191.23 301.846 191.594C301.305 191.958 300.689 192.14 299.998 192.14C299.308 192.14 298.687 191.958 298.136 191.594C297.595 191.23 297.166 190.731 296.848 190.096C296.54 189.452 296.386 188.719 296.386 187.898C296.386 187.077 296.54 186.349 296.848 185.714C297.166 185.07 297.595 184.566 298.136 184.202C298.687 183.829 299.308 183.642 299.998 183.642C300.689 183.642 301.305 183.829 301.846 184.202C302.397 184.566 302.826 185.07 303.134 185.714C303.452 186.349 303.61 187.077 303.61 187.898ZM301.72 187.898C301.72 187.151 301.557 186.545 301.23 186.078C300.913 185.602 300.502 185.364 299.998 185.364C299.476 185.364 299.056 185.602 298.738 186.078C298.421 186.545 298.262 187.151 298.262 187.898C298.262 188.645 298.421 189.251 298.738 189.718C299.056 190.185 299.476 190.418 299.998 190.418C300.502 190.418 300.913 190.185 301.23 189.718C301.557 189.251 301.72 188.645 301.72 187.898ZM295.635 200.96C295.635 200.353 295.743 199.756 295.957 199.168C296.181 198.58 296.503 198.048 296.923 197.572C297.343 197.096 297.857 196.718 298.463 196.438C299.07 196.149 299.761 196.004 300.535 196.004C301.441 196.004 302.229 196.205 302.901 196.606C303.573 197.007 304.073 197.53 304.399 198.174L302.915 199.196C302.747 198.823 302.528 198.529 302.257 198.314C301.987 198.099 301.693 197.945 301.375 197.852C301.067 197.759 300.769 197.712 300.479 197.712C299.994 197.712 299.569 197.81 299.205 198.006C298.851 198.202 298.552 198.459 298.309 198.776C298.067 199.093 297.885 199.448 297.763 199.84C297.651 200.232 297.595 200.624 297.595 201.016C297.595 201.604 297.717 202.155 297.959 202.668C298.202 203.172 298.543 203.583 298.981 203.9C299.42 204.217 299.929 204.376 300.507 204.376C300.806 204.376 301.114 204.325 301.431 204.222C301.758 204.119 302.057 203.956 302.327 203.732C302.598 203.508 302.808 203.219 302.957 202.864L304.539 203.774C304.334 204.269 304.012 204.689 303.573 205.034C303.135 205.37 302.64 205.631 302.089 205.818C301.539 205.995 300.993 206.084 300.451 206.084C299.742 206.084 299.093 205.939 298.505 205.65C297.927 205.351 297.423 204.959 296.993 204.474C296.564 203.979 296.228 203.429 295.985 202.822C295.752 202.206 295.635 201.585 295.635 200.96ZM299.035 210.06H300.995L304.649 220H302.661L301.737 217.522H298.265L297.355 220H295.367L299.035 210.06ZM301.387 216.164L300.015 212.062L298.587 216.164H301.387ZM300.369 235.778V233.692H296.281V232.026L300.971 226.006H302.245V232.012H303.477V233.692H302.245V235.778H300.369ZM298.157 232.012H300.579V228.848L298.157 232.012ZM303.686 244.682C303.686 245.326 303.523 245.909 303.196 246.432C302.879 246.955 302.445 247.37 301.894 247.678C301.353 247.986 300.737 248.14 300.046 248.14C299.299 248.14 298.651 247.958 298.1 247.594C297.549 247.23 297.125 246.707 296.826 246.026C296.537 245.345 296.392 244.528 296.392 243.576C296.392 241.765 296.737 240.384 297.428 239.432C298.128 238.471 299.066 237.99 300.242 237.99C300.867 237.99 301.441 238.125 301.964 238.396C302.496 238.667 302.944 239.054 303.308 239.558L302.23 240.734C302.006 240.389 301.717 240.118 301.362 239.922C301.007 239.717 300.625 239.614 300.214 239.614C299.589 239.614 299.089 239.866 298.716 240.37C298.343 240.865 298.147 241.56 298.128 242.456C298.324 242.12 298.604 241.854 298.968 241.658C299.332 241.462 299.747 241.364 300.214 241.364C300.867 241.364 301.455 241.513 301.978 241.812C302.501 242.101 302.916 242.498 303.224 243.002C303.532 243.497 303.686 244.057 303.686 244.682ZM300.06 246.558C300.387 246.558 300.69 246.474 300.97 246.306C301.25 246.129 301.474 245.9 301.642 245.62C301.81 245.331 301.894 245.018 301.894 244.682C301.894 244.346 301.81 244.043 301.642 243.772C301.474 243.492 301.25 243.273 300.97 243.114C300.69 242.946 300.387 242.862 300.06 242.862C299.724 242.862 299.416 242.946 299.136 243.114C298.856 243.273 298.632 243.492 298.464 243.772C298.305 244.043 298.226 244.346 298.226 244.682C298.226 245.018 298.31 245.331 298.478 245.62C298.646 245.9 298.865 246.129 299.136 246.306C299.416 246.474 299.724 246.558 300.06 246.558ZM297.016 262V252.06H303.694V253.754H298.948V256.316H302.896V257.884H298.948V262H297.016ZM299.035 266.06H300.995L304.649 276H302.661L301.737 273.522H298.265L297.355 276H295.367L299.035 266.06ZM301.387 272.164L300.015 268.062L298.587 272.164H301.387ZM303.615 287.06C303.615 287.676 303.447 288.217 303.111 288.684C302.785 289.141 302.346 289.496 301.795 289.748C301.245 290 300.643 290.126 299.989 290.126C299.327 290.126 298.72 289.995 298.169 289.734C297.628 289.463 297.194 289.095 296.867 288.628C296.55 288.152 296.391 287.606 296.391 286.99C296.391 286.617 296.471 286.281 296.629 285.982C296.788 285.674 296.984 285.413 297.217 285.198C297.46 284.983 297.703 284.811 297.945 284.68C297.6 284.512 297.306 284.26 297.063 283.924C296.821 283.588 296.699 283.219 296.699 282.818C296.699 282.37 296.797 281.978 296.993 281.642C297.189 281.297 297.451 281.007 297.777 280.774C298.104 280.541 298.459 280.363 298.841 280.242C299.233 280.121 299.621 280.06 300.003 280.06C300.377 280.06 300.759 280.121 301.151 280.242C301.543 280.354 301.903 280.527 302.229 280.76C302.556 280.993 302.817 281.283 303.013 281.628C303.219 281.964 303.321 282.356 303.321 282.804C303.321 283.205 303.195 283.579 302.943 283.924C302.691 284.269 302.388 284.521 302.033 284.68C302.444 284.885 302.808 285.193 303.125 285.604C303.452 286.005 303.615 286.491 303.615 287.06ZM298.603 282.874C298.603 283.126 298.673 283.341 298.813 283.518C298.953 283.695 299.131 283.831 299.345 283.924C299.56 284.008 299.779 284.05 300.003 284.05C300.218 284.05 300.433 284.008 300.647 283.924C300.862 283.831 301.039 283.695 301.179 283.518C301.329 283.341 301.403 283.121 301.403 282.86C301.403 282.515 301.263 282.239 300.983 282.034C300.703 281.829 300.372 281.726 299.989 281.726C299.616 281.726 299.289 281.833 299.009 282.048C298.739 282.253 298.603 282.529 298.603 282.874ZM301.711 286.948C301.711 286.631 301.627 286.365 301.459 286.15C301.291 285.926 301.077 285.758 300.815 285.646C300.554 285.525 300.279 285.464 299.989 285.464C299.691 285.464 299.411 285.525 299.149 285.646C298.897 285.767 298.692 285.94 298.533 286.164C298.375 286.388 298.295 286.649 298.295 286.948C298.295 287.247 298.379 287.508 298.547 287.732C298.715 287.947 298.93 288.119 299.191 288.25C299.453 288.371 299.723 288.432 300.003 288.432C300.302 288.432 300.577 288.367 300.829 288.236C301.091 288.105 301.301 287.933 301.459 287.718C301.627 287.494 301.711 287.237 301.711 286.948ZM301.431 300.696C302.009 300.789 302.476 301.069 302.831 301.536C303.195 301.993 303.377 302.544 303.377 303.188C303.377 303.776 303.227 304.285 302.929 304.714C302.63 305.143 302.205 305.475 301.655 305.708C301.113 305.941 300.474 306.058 299.737 306.058C298.318 306.058 297.235 305.61 296.489 304.714L297.553 303.384C297.795 303.692 298.085 303.93 298.421 304.098C298.766 304.266 299.186 304.35 299.681 304.35C300.25 304.35 300.684 304.233 300.983 304C301.281 303.776 301.431 303.435 301.431 302.978C301.431 302.493 301.258 302.119 300.913 301.858C300.567 301.597 300.045 301.466 299.345 301.466H298.953V300.066H299.387C299.956 300.066 300.399 299.94 300.717 299.688C301.043 299.427 301.207 299.095 301.207 298.694C301.207 298.321 301.076 298.041 300.815 297.854C300.553 297.658 300.213 297.56 299.793 297.56C298.925 297.56 298.262 297.933 297.805 298.68L296.629 297.364C296.825 297.084 297.091 296.837 297.427 296.622C297.772 296.407 298.164 296.239 298.603 296.118C299.051 295.997 299.517 295.936 300.003 295.936C300.637 295.936 301.193 296.039 301.669 296.244C302.154 296.449 302.532 296.739 302.803 297.112C303.073 297.485 303.209 297.919 303.209 298.414C303.209 298.787 303.134 299.137 302.985 299.464C302.835 299.781 302.625 300.052 302.355 300.276C302.093 300.491 301.785 300.631 301.431 300.696ZM299.792 320.086C299.073 320.086 298.425 319.932 297.846 319.624C297.267 319.316 296.829 318.896 296.53 318.364L297.608 317.244C297.869 317.608 298.196 317.897 298.588 318.112C298.98 318.327 299.386 318.434 299.806 318.434C300.31 318.434 300.721 318.28 301.038 317.972C301.365 317.664 301.528 317.263 301.528 316.768C301.528 316.283 301.374 315.891 301.066 315.592C300.758 315.293 300.375 315.144 299.918 315.144C299.61 315.144 299.321 315.214 299.05 315.354C298.789 315.485 298.579 315.676 298.42 315.928H296.782L297.93 310.006H302.83V311.714H299.288L298.882 313.94C298.994 313.828 299.157 313.735 299.372 313.66C299.596 313.576 299.867 313.534 300.184 313.534C300.809 313.534 301.365 313.669 301.85 313.94C302.345 314.211 302.732 314.589 303.012 315.074C303.301 315.55 303.446 316.101 303.446 316.726C303.446 317.398 303.287 317.986 302.97 318.49C302.653 318.994 302.219 319.386 301.668 319.666C301.117 319.946 300.492 320.086 299.792 320.086ZM295.635 326.96C295.635 326.353 295.743 325.756 295.957 325.168C296.181 324.58 296.503 324.048 296.923 323.572C297.343 323.096 297.857 322.718 298.463 322.438C299.07 322.149 299.761 322.004 300.535 322.004C301.441 322.004 302.229 322.205 302.901 322.606C303.573 323.007 304.073 323.53 304.399 324.174L302.915 325.196C302.747 324.823 302.528 324.529 302.257 324.314C301.987 324.099 301.693 323.945 301.375 323.852C301.067 323.759 300.769 323.712 300.479 323.712C299.994 323.712 299.569 323.81 299.205 324.006C298.851 324.202 298.552 324.459 298.309 324.776C298.067 325.093 297.885 325.448 297.763 325.84C297.651 326.232 297.595 326.624 297.595 327.016C297.595 327.604 297.717 328.155 297.959 328.668C298.202 329.172 298.543 329.583 298.981 329.9C299.42 330.217 299.929 330.376 300.507 330.376C300.806 330.376 301.114 330.325 301.431 330.222C301.758 330.119 302.057 329.956 302.327 329.732C302.598 329.508 302.808 329.219 302.957 328.864L304.539 329.774C304.334 330.269 304.012 330.689 303.573 331.034C303.135 331.37 302.64 331.631 302.089 331.818C301.539 331.995 300.993 332.084 300.451 332.084C299.742 332.084 299.093 331.939 298.505 331.65C297.927 331.351 297.423 330.959 296.993 330.474C296.564 329.979 296.228 329.429 295.985 328.822C295.752 328.206 295.635 327.585 295.635 326.96ZM303.734 344.306V346H296.832V336.06H303.608V337.754H298.764V340.148H302.95V341.716H298.764V344.306H303.734ZM300.369 361.778V359.692H296.281V358.026L300.971 352.006H302.245V358.012H303.477V359.692H302.245V361.778H300.369ZM298.157 358.012H300.579V354.848L298.157 358.012ZM299.035 364.06H300.995L304.649 374H302.661L301.737 371.522H298.265L297.355 374H295.367L299.035 364.06ZM301.387 370.164L300.015 366.062L298.587 370.164H301.387ZM303.686 384.682C303.686 385.326 303.523 385.909 303.196 386.432C302.879 386.955 302.445 387.37 301.894 387.678C301.353 387.986 300.737 388.14 300.046 388.14C299.299 388.14 298.651 387.958 298.1 387.594C297.549 387.23 297.125 386.707 296.826 386.026C296.537 385.345 296.392 384.528 296.392 383.576C296.392 381.765 296.737 380.384 297.428 379.432C298.128 378.471 299.066 377.99 300.242 377.99C300.867 377.99 301.441 378.125 301.964 378.396C302.496 378.667 302.944 379.054 303.308 379.558L302.23 380.734C302.006 380.389 301.717 380.118 301.362 379.922C301.007 379.717 300.625 379.614 300.214 379.614C299.589 379.614 299.089 379.866 298.716 380.37C298.343 380.865 298.147 381.56 298.128 382.456C298.324 382.12 298.604 381.854 298.968 381.658C299.332 381.462 299.747 381.364 300.214 381.364C300.867 381.364 301.455 381.513 301.978 381.812C302.501 382.101 302.916 382.498 303.224 383.002C303.532 383.497 303.686 384.057 303.686 384.682ZM300.06 386.558C300.387 386.558 300.69 386.474 300.97 386.306C301.25 386.129 301.474 385.9 301.642 385.62C301.81 385.331 301.894 385.018 301.894 384.682C301.894 384.346 301.81 384.043 301.642 383.772C301.474 383.492 301.25 383.273 300.97 383.114C300.69 382.946 300.387 382.862 300.06 382.862C299.724 382.862 299.416 382.946 299.136 383.114C298.856 383.273 298.632 383.492 298.464 383.772C298.305 384.043 298.226 384.346 298.226 384.682C298.226 385.018 298.31 385.331 298.478 385.62C298.646 385.9 298.865 386.129 299.136 386.306C299.416 386.474 299.724 386.558 300.06 386.558ZM304.286 399.438C304.286 399.998 304.142 400.469 303.852 400.852C303.563 401.225 303.171 401.51 302.676 401.706C302.191 401.902 301.659 402 301.08 402H296.278V392.06H301.598C302.065 392.06 302.466 392.186 302.802 392.438C303.138 392.681 303.4 392.998 303.586 393.39C303.773 393.782 303.866 394.183 303.866 394.594C303.866 395.079 303.745 395.537 303.502 395.966C303.26 396.386 302.905 396.699 302.438 396.904C303.008 397.072 303.456 397.375 303.782 397.814C304.118 398.253 304.286 398.794 304.286 399.438ZM298.21 393.712V396.218H300.786C301.104 396.218 301.379 396.106 301.612 395.882C301.846 395.658 301.962 395.35 301.962 394.958C301.962 394.585 301.855 394.286 301.64 394.062C301.435 393.829 301.178 393.712 300.87 393.712H298.21ZM302.34 399.074C302.34 398.71 302.228 398.397 302.004 398.136C301.78 397.875 301.505 397.744 301.178 397.744H298.21V400.362H301.08C301.435 400.362 301.734 400.236 301.976 399.984C302.219 399.732 302.34 399.429 302.34 399.074ZM295.635 410.96C295.635 410.353 295.743 409.756 295.957 409.168C296.181 408.58 296.503 408.048 296.923 407.572C297.343 407.096 297.857 406.718 298.463 406.438C299.07 406.149 299.761 406.004 300.535 406.004C301.441 406.004 302.229 406.205 302.901 406.606C303.573 407.007 304.073 407.53 304.399 408.174L302.915 409.196C302.747 408.823 302.528 408.529 302.257 408.314C301.987 408.099 301.693 407.945 301.375 407.852C301.067 407.759 300.769 407.712 300.479 407.712C299.994 407.712 299.569 407.81 299.205 408.006C298.851 408.202 298.552 408.459 298.309 408.776C298.067 409.093 297.885 409.448 297.763 409.84C297.651 410.232 297.595 410.624 297.595 411.016C297.595 411.604 297.717 412.155 297.959 412.668C298.202 413.172 298.543 413.583 298.981 413.9C299.42 414.217 299.929 414.376 300.507 414.376C300.806 414.376 301.114 414.325 301.431 414.222C301.758 414.119 302.057 413.956 302.327 413.732C302.598 413.508 302.808 413.219 302.957 412.864L304.539 413.774C304.334 414.269 304.012 414.689 303.573 415.034C303.135 415.37 302.64 415.631 302.089 415.818C301.539 415.995 300.993 416.084 300.451 416.084C299.742 416.084 299.093 415.939 298.505 415.65C297.927 415.351 297.423 414.959 296.993 414.474C296.564 413.979 296.228 413.429 295.985 412.822C295.752 412.206 295.635 411.585 295.635 410.96ZM303.615 427.06C303.615 427.676 303.447 428.217 303.111 428.684C302.785 429.141 302.346 429.496 301.795 429.748C301.245 430 300.643 430.126 299.989 430.126C299.327 430.126 298.72 429.995 298.169 429.734C297.628 429.463 297.194 429.095 296.867 428.628C296.55 428.152 296.391 427.606 296.391 426.99C296.391 426.617 296.471 426.281 296.629 425.982C296.788 425.674 296.984 425.413 297.217 425.198C297.46 424.983 297.703 424.811 297.945 424.68C297.6 424.512 297.306 424.26 297.063 423.924C296.821 423.588 296.699 423.219 296.699 422.818C296.699 422.37 296.797 421.978 296.993 421.642C297.189 421.297 297.451 421.007 297.777 420.774C298.104 420.541 298.459 420.363 298.841 420.242C299.233 420.121 299.621 420.06 300.003 420.06C300.377 420.06 300.759 420.121 301.151 420.242C301.543 420.354 301.903 420.527 302.229 420.76C302.556 420.993 302.817 421.283 303.013 421.628C303.219 421.964 303.321 422.356 303.321 422.804C303.321 423.205 303.195 423.579 302.943 423.924C302.691 424.269 302.388 424.521 302.033 424.68C302.444 424.885 302.808 425.193 303.125 425.604C303.452 426.005 303.615 426.491 303.615 427.06ZM298.603 422.874C298.603 423.126 298.673 423.341 298.813 423.518C298.953 423.695 299.131 423.831 299.345 423.924C299.56 424.008 299.779 424.05 300.003 424.05C300.218 424.05 300.433 424.008 300.647 423.924C300.862 423.831 301.039 423.695 301.179 423.518C301.329 423.341 301.403 423.121 301.403 422.86C301.403 422.515 301.263 422.239 300.983 422.034C300.703 421.829 300.372 421.726 299.989 421.726C299.616 421.726 299.289 421.833 299.009 422.048C298.739 422.253 298.603 422.529 298.603 422.874ZM301.711 426.948C301.711 426.631 301.627 426.365 301.459 426.15C301.291 425.926 301.077 425.758 300.815 425.646C300.554 425.525 300.279 425.464 299.989 425.464C299.691 425.464 299.411 425.525 299.149 425.646C298.897 425.767 298.692 425.94 298.533 426.164C298.375 426.388 298.295 426.649 298.295 426.948C298.295 427.247 298.379 427.508 298.547 427.732C298.715 427.947 298.93 428.119 299.191 428.25C299.453 428.371 299.723 428.432 300.003 428.432C300.302 428.432 300.577 428.367 300.829 428.236C301.091 428.105 301.301 427.933 301.459 427.718C301.627 427.494 301.711 427.237 301.711 426.948ZM303.121 442.306V444H297.437V442.306H299.425V438.064C299.313 438.204 299.122 438.353 298.851 438.512C298.59 438.671 298.3 438.806 297.983 438.918C297.675 439.03 297.4 439.086 297.157 439.086V437.336C297.325 437.336 297.526 437.285 297.759 437.182C298.002 437.07 298.24 436.939 298.473 436.79C298.716 436.641 298.921 436.496 299.089 436.356C299.266 436.207 299.378 436.09 299.425 436.006H301.343V442.306H303.121ZM303.61 453.898C303.61 454.719 303.452 455.452 303.134 456.096C302.826 456.731 302.397 457.23 301.846 457.594C301.305 457.958 300.689 458.14 299.998 458.14C299.308 458.14 298.687 457.958 298.136 457.594C297.595 457.23 297.166 456.731 296.848 456.096C296.54 455.452 296.386 454.719 296.386 453.898C296.386 453.077 296.54 452.349 296.848 451.714C297.166 451.07 297.595 450.566 298.136 450.202C298.687 449.829 299.308 449.642 299.998 449.642C300.689 449.642 301.305 449.829 301.846 450.202C302.397 450.566 302.826 451.07 303.134 451.714C303.452 452.349 303.61 453.077 303.61 453.898ZM301.72 453.898C301.72 453.151 301.557 452.545 301.23 452.078C300.913 451.602 300.502 451.364 299.998 451.364C299.476 451.364 299.056 451.602 298.738 452.078C298.421 452.545 298.262 453.151 298.262 453.898C298.262 454.645 298.421 455.251 298.738 455.718C299.056 456.185 299.476 456.418 299.998 456.418C300.502 456.418 300.913 456.185 301.23 455.718C301.557 455.251 301.72 454.645 301.72 453.898ZM295.635 466.96C295.635 466.353 295.743 465.756 295.957 465.168C296.181 464.58 296.503 464.048 296.923 463.572C297.343 463.096 297.857 462.718 298.463 462.438C299.07 462.149 299.761 462.004 300.535 462.004C301.441 462.004 302.229 462.205 302.901 462.606C303.573 463.007 304.073 463.53 304.399 464.174L302.915 465.196C302.747 464.823 302.528 464.529 302.257 464.314C301.987 464.099 301.693 463.945 301.375 463.852C301.067 463.759 300.769 463.712 300.479 463.712C299.994 463.712 299.569 463.81 299.205 464.006C298.851 464.202 298.552 464.459 298.309 464.776C298.067 465.093 297.885 465.448 297.763 465.84C297.651 466.232 297.595 466.624 297.595 467.016C297.595 467.604 297.717 468.155 297.959 468.668C298.202 469.172 298.543 469.583 298.981 469.9C299.42 470.217 299.929 470.376 300.507 470.376C300.806 470.376 301.114 470.325 301.431 470.222C301.758 470.119 302.057 469.956 302.327 469.732C302.598 469.508 302.808 469.219 302.957 468.864L304.539 469.774C304.334 470.269 304.012 470.689 303.573 471.034C303.135 471.37 302.64 471.631 302.089 471.818C301.539 471.995 300.993 472.084 300.451 472.084C299.742 472.084 299.093 471.939 298.505 471.65C297.927 471.351 297.423 470.959 296.993 470.474C296.564 469.979 296.228 469.429 295.985 468.822C295.752 468.206 295.635 467.585 295.635 466.96ZM299.035 476.06H300.995L304.649 486H302.661L301.737 483.522H298.265L297.355 486H295.367L299.035 476.06ZM301.387 482.164L300.015 478.062L298.587 482.164H301.387ZM300.369 501.778V499.692H296.281V498.026L300.971 492.006H302.245V498.012H303.477V499.692H302.245V501.778H300.369ZM298.157 498.012H300.579V494.848L298.157 498.012Z" fill="url(#paint0_linear_2_3)"/>
<path d="M182.615 68.06C182.615 68.676 182.447 69.2173 182.111 69.684C181.785 70.1413 181.346 70.496 180.795 70.748C180.245 71 179.643 71.126 178.989 71.126C178.327 71.126 177.72 70.9953 177.169 70.734C176.628 70.4633 176.194 70.0947 175.867 69.628C175.55 69.152 175.391 68.606 175.391 67.99C175.391 67.6167 175.471 67.2807 175.629 66.982C175.788 66.674 175.984 66.4127 176.217 66.198C176.46 65.9833 176.703 65.8107 176.945 65.68C176.6 65.512 176.306 65.26 176.063 64.924C175.821 64.588 175.699 64.2193 175.699 63.818C175.699 63.37 175.797 62.978 175.993 62.642C176.189 62.2967 176.451 62.0073 176.777 61.774C177.104 61.5407 177.459 61.3633 177.841 61.242C178.233 61.1207 178.621 61.06 179.003 61.06C179.377 61.06 179.759 61.1207 180.151 61.242C180.543 61.354 180.903 61.5267 181.229 61.76C181.556 61.9933 181.817 62.2827 182.013 62.628C182.219 62.964 182.321 63.356 182.321 63.804C182.321 64.2053 182.195 64.5787 181.943 64.924C181.691 65.2693 181.388 65.5213 181.033 65.68C181.444 65.8853 181.808 66.1933 182.125 66.604C182.452 67.0053 182.615 67.4907 182.615 68.06ZM177.603 63.874C177.603 64.126 177.673 64.3407 177.813 64.518C177.953 64.6953 178.131 64.8307 178.345 64.924C178.56 65.008 178.779 65.05 179.003 65.05C179.218 65.05 179.433 65.008 179.647 64.924C179.862 64.8307 180.039 64.6953 180.179 64.518C180.329 64.3407 180.403 64.1213 180.403 63.86C180.403 63.5147 180.263 63.2393 179.983 63.034C179.703 62.8287 179.372 62.726 178.989 62.726C178.616 62.726 178.289 62.8333 178.009 63.048C177.739 63.2533 177.603 63.5287 177.603 63.874ZM180.711 67.948C180.711 67.6307 180.627 67.3647 180.459 67.15C180.291 66.926 180.077 66.758 179.815 66.646C179.554 66.5247 179.279 66.464 178.989 66.464C178.691 66.464 178.411 66.5247 178.149 66.646C177.897 66.7673 177.692 66.94 177.533 67.164C177.375 67.388 177.295 67.6493 177.295 67.948C177.295 68.2467 177.379 68.508 177.547 68.732C177.715 68.9467 177.93 69.1193 178.191 69.25C178.453 69.3713 178.723 69.432 179.003 69.432C179.302 69.432 179.577 69.3667 179.829 69.236C180.091 69.1053 180.301 68.9327 180.459 68.718C180.627 68.494 180.711 68.2373 180.711 67.948ZM182.121 83.306V85H176.437V83.306H178.425V79.064C178.313 79.204 178.122 79.3533 177.851 79.512C177.59 79.6707 177.3 79.806 176.983 79.918C176.675 80.03 176.4 80.086 176.157 80.086V78.336C176.325 78.336 176.526 78.2847 176.759 78.182C177.002 78.07 177.24 77.9393 177.473 77.79C177.716 77.6407 177.921 77.496 178.089 77.356C178.266 77.2067 178.378 77.09 178.425 77.006H180.343V83.306H182.121ZM182.61 94.898C182.61 95.7193 182.452 96.452 182.134 97.096C181.826 97.7307 181.397 98.23 180.846 98.594C180.305 98.958 179.689 99.14 178.998 99.14C178.308 99.14 177.687 98.958 177.136 98.594C176.595 98.23 176.166 97.7307 175.848 97.096C175.54 96.452 175.386 95.7193 175.386 94.898C175.386 94.0767 175.54 93.3487 175.848 92.714C176.166 92.07 176.595 91.566 177.136 91.202C177.687 90.8287 178.308 90.642 178.998 90.642C179.689 90.642 180.305 90.8287 180.846 91.202C181.397 91.566 181.826 92.07 182.134 92.714C182.452 93.3487 182.61 94.0767 182.61 94.898ZM180.72 94.898C180.72 94.1513 180.557 93.5447 180.23 93.078C179.913 92.602 179.502 92.364 178.998 92.364C178.476 92.364 178.056 92.602 177.738 93.078C177.421 93.5447 177.262 94.1513 177.262 94.898C177.262 95.6447 177.421 96.2513 177.738 96.718C178.056 97.1847 178.476 97.418 178.998 97.418C179.502 97.418 179.913 97.1847 180.23 96.718C180.557 96.2513 180.72 95.6447 180.72 94.898ZM174.635 107.96C174.635 107.353 174.743 106.756 174.957 106.168C175.181 105.58 175.503 105.048 175.923 104.572C176.343 104.096 176.857 103.718 177.463 103.438C178.07 103.149 178.761 103.004 179.535 103.004C180.441 103.004 181.229 103.205 181.901 103.606C182.573 104.007 183.073 104.53 183.399 105.174L181.915 106.196C181.747 105.823 181.528 105.529 181.257 105.314C180.987 105.099 180.693 104.945 180.375 104.852C180.067 104.759 179.769 104.712 179.479 104.712C178.994 104.712 178.569 104.81 178.205 105.006C177.851 105.202 177.552 105.459 177.309 105.776C177.067 106.093 176.885 106.448 176.763 106.84C176.651 107.232 176.595 107.624 176.595 108.016C176.595 108.604 176.717 109.155 176.959 109.668C177.202 110.172 177.543 110.583 177.981 110.9C178.42 111.217 178.929 111.376 179.507 111.376C179.806 111.376 180.114 111.325 180.431 111.222C180.758 111.119 181.057 110.956 181.327 110.732C181.598 110.508 181.808 110.219 181.957 109.864L183.539 110.774C183.334 111.269 183.012 111.689 182.573 112.034C182.135 112.37 181.64 112.631 181.089 112.818C180.539 112.995 179.993 113.084 179.451 113.084C178.742 113.084 178.093 112.939 177.505 112.65C176.927 112.351 176.423 111.959 175.993 111.474C175.564 110.979 175.228 110.429 174.985 109.822C174.752 109.206 174.635 108.585 174.635 107.96ZM178.035 117.06H179.995L183.649 127H181.661L180.737 124.522H177.265L176.355 127H174.367L178.035 117.06ZM180.387 123.164L179.015 119.062L177.587 123.164H180.387ZM179.369 142.778V140.692H175.281V139.026L179.971 133.006H181.245V139.012H182.477V140.692H181.245V142.778H179.369ZM177.157 139.012H179.579V135.848L177.157 139.012ZM182.686 151.682C182.686 152.326 182.523 152.909 182.196 153.432C181.879 153.955 181.445 154.37 180.894 154.678C180.353 154.986 179.737 155.14 179.046 155.14C178.299 155.14 177.651 154.958 177.1 154.594C176.549 154.23 176.125 153.707 175.826 153.026C175.537 152.345 175.392 151.528 175.392 150.576C175.392 148.765 175.737 147.384 176.428 146.432C177.128 145.471 178.066 144.99 179.242 144.99C179.867 144.99 180.441 145.125 180.964 145.396C181.496 145.667 181.944 146.054 182.308 146.558L181.23 147.734C181.006 147.389 180.717 147.118 180.362 146.922C180.007 146.717 179.625 146.614 179.214 146.614C178.589 146.614 178.089 146.866 177.716 147.37C177.343 147.865 177.147 148.56 177.128 149.456C177.324 149.12 177.604 148.854 177.968 148.658C178.332 148.462 178.747 148.364 179.214 148.364C179.867 148.364 180.455 148.513 180.978 148.812C181.501 149.101 181.916 149.498 182.224 150.002C182.532 150.497 182.686 151.057 182.686 151.682ZM179.06 153.558C179.387 153.558 179.69 153.474 179.97 153.306C180.25 153.129 180.474 152.9 180.642 152.62C180.81 152.331 180.894 152.018 180.894 151.682C180.894 151.346 180.81 151.043 180.642 150.772C180.474 150.492 180.25 150.273 179.97 150.114C179.69 149.946 179.387 149.862 179.06 149.862C178.724 149.862 178.416 149.946 178.136 150.114C177.856 150.273 177.632 150.492 177.464 150.772C177.305 151.043 177.226 151.346 177.226 151.682C177.226 152.018 177.31 152.331 177.478 152.62C177.646 152.9 177.865 153.129 178.136 153.306C178.416 153.474 178.724 153.558 179.06 153.558ZM176.016 169V159.06H182.694V160.754H177.948V163.316H181.896V164.884H177.948V169H176.016Z" fill="url(#paint1_linear_2_3)"/>
<path d="M74.621 121.306V123H68.937V121.306H70.925V117.064C70.813 117.204 70.6217 117.353 70.351 117.512C70.0897 117.671 69.8003 117.806 69.483 117.918C69.175 118.03 68.8997 118.086 68.657 118.086V116.336C68.825 116.336 69.0257 116.285 69.259 116.182C69.5017 116.07 69.7397 115.939 69.973 115.79C70.2157 115.641 70.421 115.496 70.589 115.356C70.7663 115.207 70.8783 115.09 70.925 115.006H72.843V121.306H74.621ZM74.621 135.306V137H68.937V135.306H70.925V131.064C70.813 131.204 70.6217 131.353 70.351 131.512C70.0897 131.671 69.8003 131.806 69.483 131.918C69.175 132.03 68.8997 132.086 68.657 132.086V130.336C68.825 130.336 69.0257 130.285 69.259 130.182C69.5017 130.07 69.7397 129.939 69.973 129.79C70.2157 129.641 70.421 129.496 70.589 129.356C70.7663 129.207 70.8783 129.09 70.925 129.006H72.843V135.306H74.621ZM75.1102 146.898C75.1102 147.719 74.9515 148.452 74.6342 149.096C74.3262 149.731 73.8969 150.23 73.3462 150.594C72.8049 150.958 72.1889 151.14 71.4982 151.14C70.8075 151.14 70.1869 150.958 69.6362 150.594C69.0949 150.23 68.6655 149.731 68.3482 149.096C68.0402 148.452 67.8862 147.719 67.8862 146.898C67.8862 146.077 68.0402 145.349 68.3482 144.714C68.6655 144.07 69.0949 143.566 69.6362 143.202C70.1869 142.829 70.8075 142.642 71.4982 142.642C72.1889 142.642 72.8049 142.829 73.3462 143.202C73.8969 143.566 74.3262 144.07 74.6342 144.714C74.9515 145.349 75.1102 146.077 75.1102 146.898ZM73.2202 146.898C73.2202 146.151 73.0569 145.545 72.7302 145.078C72.4129 144.602 72.0022 144.364 71.4982 144.364C70.9755 144.364 70.5555 144.602 70.2382 145.078C69.9209 145.545 69.7622 146.151 69.7622 146.898C69.7622 147.645 69.9209 148.251 70.2382 148.718C70.5555 149.185 70.9755 149.418 71.4982 149.418C72.0022 149.418 72.4129 149.185 72.7302 148.718C73.0569 148.251 73.2202 147.645 73.2202 146.898ZM74.621 163.306V165H68.937V163.306H70.925V159.064C70.813 159.204 70.6217 159.353 70.351 159.512C70.0897 159.671 69.8003 159.806 69.483 159.918C69.175 160.03 68.8997 160.086 68.657 160.086V158.336C68.825 158.336 69.0257 158.285 69.259 158.182C69.5017 158.07 69.7397 157.939 69.973 157.79C70.2157 157.641 70.421 157.496 70.589 157.356C70.7663 157.207 70.8783 157.09 70.925 157.006H72.843V163.306H74.621ZM74.621 177.306V179H68.937V177.306H70.925V173.064C70.813 173.204 70.6217 173.353 70.351 173.512C70.0897 173.671 69.8003 173.806 69.483 173.918C69.175 174.03 68.8997 174.086 68.657 174.086V172.336C68.825 172.336 69.0257 172.285 69.259 172.182C69.5017 172.07 69.7397 171.939 69.973 171.79C70.2157 171.641 70.421 171.496 70.589 171.356C70.7663 171.207 70.8783 171.09 70.925 171.006H72.843V177.306H74.621ZM74.621 191.306V193H68.937V191.306H70.925V187.064C70.813 187.204 70.6217 187.353 70.351 187.512C70.0897 187.671 69.8003 187.806 69.483 187.918C69.175 188.03 68.8997 188.086 68.657 188.086V186.336C68.825 186.336 69.0257 186.285 69.259 186.182C69.5017 186.07 69.7397 185.939 69.973 185.79C70.2157 185.641 70.421 185.496 70.589 185.356C70.7663 185.207 70.8783 185.09 70.925 185.006H72.843V191.306H74.621ZM75.1102 202.898C75.1102 203.719 74.9515 204.452 74.6342 205.096C74.3262 205.731 73.8969 206.23 73.3462 206.594C72.8049 206.958 72.1889 207.14 71.4982 207.14C70.8075 207.14 70.1869 206.958 69.6362 206.594C69.0949 206.23 68.6655 205.731 68.3482 205.096C68.0402 204.452 67.8862 203.719 67.8862 202.898C67.8862 202.077 68.0402 201.349 68.3482 200.714C68.6655 200.07 69.0949 199.566 69.6362 199.202C70.1869 198.829 70.8075 198.642 71.4982 198.642C72.1889 198.642 72.8049 198.829 73.3462 199.202C73.8969 199.566 74.3262 200.07 74.6342 200.714C74.9515 201.349 75.1102 202.077 75.1102 202.898ZM73.2202 202.898C73.2202 202.151 73.0569 201.545 72.7302 201.078C72.4129 200.602 72.0022 200.364 71.4982 200.364C70.9755 200.364 70.5555 200.602 70.2382 201.078C69.9209 201.545 69.7622 202.151 69.7622 202.898C69.7622 203.645 69.9209 204.251 70.2382 204.718C70.5555 205.185 70.9755 205.418 71.4982 205.418C72.0022 205.418 72.4129 205.185 72.7302 204.718C73.0569 204.251 73.2202 203.645 73.2202 202.898ZM74.621 219.306V221H68.937V219.306H70.925V215.064C70.813 215.204 70.6217 215.353 70.351 215.512C70.0897 215.671 69.8003 215.806 69.483 215.918C69.175 216.03 68.8997 216.086 68.657 216.086V214.336C68.825 214.336 69.0257 214.285 69.259 214.182C69.5017 214.07 69.7397 213.939 69.973 213.79C70.2157 213.641 70.421 213.496 70.589 213.356C70.7663 213.207 70.8783 213.09 70.925 213.006H72.843V219.306H74.621ZM75.1102 230.898C75.1102 231.719 74.9515 232.452 74.6342 233.096C74.3262 233.731 73.8969 234.23 73.3462 234.594C72.8049 234.958 72.1889 235.14 71.4982 235.14C70.8075 235.14 70.1869 234.958 69.6362 234.594C69.0949 234.23 68.6655 233.731 68.3482 233.096C68.0402 232.452 67.8862 231.719 67.8862 230.898C67.8862 230.077 68.0402 229.349 68.3482 228.714C68.6655 228.07 69.0949 227.566 69.6362 227.202C70.1869 226.829 70.8075 226.642 71.4982 226.642C72.1889 226.642 72.8049 226.829 73.3462 227.202C73.8969 227.566 74.3262 228.07 74.6342 228.714C74.9515 229.349 75.1102 230.077 75.1102 230.898ZM73.2202 230.898C73.2202 230.151 73.0569 229.545 72.7302 229.078C72.4129 228.602 72.0022 228.364 71.4982 228.364C70.9755 228.364 70.5555 228.602 70.2382 229.078C69.9209 229.545 69.7622 230.151 69.7622 230.898C69.7622 231.645 69.9209 232.251 70.2382 232.718C70.5555 233.185 70.9755 233.418 71.4982 233.418C72.0022 233.418 72.4129 233.185 72.7302 232.718C73.0569 232.251 73.2202 231.645 73.2202 230.898ZM74.621 247.306V249H68.937V247.306H70.925V243.064C70.813 243.204 70.6217 243.353 70.351 243.512C70.0897 243.671 69.8003 243.806 69.483 243.918C69.175 244.03 68.8997 244.086 68.657 244.086V242.336C68.825 242.336 69.0257 242.285 69.259 242.182C69.5017 242.07 69.7397 241.939 69.973 241.79C70.2157 241.641 70.421 241.496 70.589 241.356C70.7663 241.207 70.8783 241.09 70.925 241.006H72.843V247.306H74.621ZM75.1102 258.898C75.1102 259.719 74.9515 260.452 74.6342 261.096C74.3262 261.731 73.8969 262.23 73.3462 262.594C72.8049 262.958 72.1889 263.14 71.4982 263.14C70.8075 263.14 70.1869 262.958 69.6362 262.594C69.0949 262.23 68.6655 261.731 68.3482 261.096C68.0402 260.452 67.8862 259.719 67.8862 258.898C67.8862 258.077 68.0402 257.349 68.3482 256.714C68.6655 256.07 69.0949 255.566 69.6362 255.202C70.1869 254.829 70.8075 254.642 71.4982 254.642C72.1889 254.642 72.8049 254.829 73.3462 255.202C73.8969 255.566 74.3262 256.07 74.6342 256.714C74.9515 257.349 75.1102 258.077 75.1102 258.898ZM73.2202 258.898C73.2202 258.151 73.0569 257.545 72.7302 257.078C72.4129 256.602 72.0022 256.364 71.4982 256.364C70.9755 256.364 70.5555 256.602 70.2382 257.078C69.9209 257.545 69.7622 258.151 69.7622 258.898C69.7622 259.645 69.9209 260.251 70.2382 260.718C70.5555 261.185 70.9755 261.418 71.4982 261.418C72.0022 261.418 72.4129 261.185 72.7302 260.718C73.0569 260.251 73.2202 259.645 73.2202 258.898ZM74.621 275.306V277H68.937V275.306H70.925V271.064C70.813 271.204 70.6217 271.353 70.351 271.512C70.0897 271.671 69.8003 271.806 69.483 271.918C69.175 272.03 68.8997 272.086 68.657 272.086V270.336C68.825 270.336 69.0257 270.285 69.259 270.182C69.5017 270.07 69.7397 269.939 69.973 269.79C70.2157 269.641 70.421 269.496 70.589 269.356C70.7663 269.207 70.8783 269.09 70.925 269.006H72.843V275.306H74.621ZM74.621 289.306V291H68.937V289.306H70.925V285.064C70.813 285.204 70.6217 285.353 70.351 285.512C70.0897 285.671 69.8003 285.806 69.483 285.918C69.175 286.03 68.8997 286.086 68.657 286.086V284.336C68.825 284.336 69.0257 284.285 69.259 284.182C69.5017 284.07 69.7397 283.939 69.973 283.79C70.2157 283.641 70.421 283.496 70.589 283.356C70.7663 283.207 70.8783 283.09 70.925 283.006H72.843V289.306H74.621ZM75.1102 300.898C75.1102 301.719 74.9515 302.452 74.6342 303.096C74.3262 303.731 73.8969 304.23 73.3462 304.594C72.8049 304.958 72.1889 305.14 71.4982 305.14C70.8075 305.14 70.1869 304.958 69.6362 304.594C69.0949 304.23 68.6655 303.731 68.3482 303.096C68.0402 302.452 67.8862 301.719 67.8862 300.898C67.8862 300.077 68.0402 299.349 68.3482 298.714C68.6655 298.07 69.0949 297.566 69.6362 297.202C70.1869 296.829 70.8075 296.642 71.4982 296.642C72.1889 296.642 72.8049 296.829 73.3462 297.202C73.8969 297.566 74.3262 298.07 74.6342 298.714C74.9515 299.349 75.1102 300.077 75.1102 300.898ZM73.2202 300.898C73.2202 300.151 73.0569 299.545 72.7302 299.078C72.4129 298.602 72.0022 298.364 71.4982 298.364C70.9755 298.364 70.5555 298.602 70.2382 299.078C69.9209 299.545 69.7622 300.151 69.7622 300.898C69.7622 301.645 69.9209 302.251 70.2382 302.718C70.5555 303.185 70.9755 303.418 71.4982 303.418C72.0022 303.418 72.4129 303.185 72.7302 302.718C73.0569 302.251 73.2202 301.645 73.2202 300.898ZM74.621 317.306V319H68.937V317.306H70.925V313.064C70.813 313.204 70.6217 313.353 70.351 313.512C70.0897 313.671 69.8003 313.806 69.483 313.918C69.175 314.03 68.8997 314.086 68.657 314.086V312.336C68.825 312.336 69.0257 312.285 69.259 312.182C69.5017 312.07 69.7397 311.939 69.973 311.79C70.2157 311.641 70.421 311.496 70.589 311.356C70.7663 311.207 70.8783 311.09 70.925 311.006H72.843V317.306H74.621ZM74.621 331.306V333H68.937V331.306H70.925V327.064C70.813 327.204 70.6217 327.353 70.351 327.512C70.0897 327.671 69.8003 327.806 69.483 327.918C69.175 328.03 68.8997 328.086 68.657 328.086V326.336C68.825 326.336 69.0257 326.285 69.259 326.182C69.5017 326.07 69.7397 325.939 69.973 325.79C70.2157 325.641 70.421 325.496 70.589 325.356C70.7663 325.207 70.8783 325.09 70.925 325.006H72.843V331.306H74.621ZM74.621 345.306V347H68.937V345.306H70.925V341.064C70.813 341.204 70.6217 341.353 70.351 341.512C70.0897 341.671 69.8003 341.806 69.483 341.918C69.175 342.03 68.8997 342.086 68.657 342.086V340.336C68.825 340.336 69.0257 340.285 69.259 340.182C69.5017 340.07 69.7397 339.939 69.973 339.79C70.2157 339.641 70.421 339.496 70.589 339.356C70.7663 339.207 70.8783 339.09 70.925 339.006H72.843V345.306H74.621ZM75.1102 356.898C75.1102 357.719 74.9515 358.452 74.6342 359.096C74.3262 359.731 73.8969 360.23 73.3462 360.594C72.8049 360.958 72.1889 361.14 71.4982 361.14C70.8075 361.14 70.1869 360.958 69.6362 360.594C69.0949 360.23 68.6655 359.731 68.3482 359.096C68.0402 358.452 67.8862 357.719 67.8862 356.898C67.8862 356.077 68.0402 355.349 68.3482 354.714C68.6655 354.07 69.0949 353.566 69.6362 353.202C70.1869 352.829 70.8075 352.642 71.4982 352.642C72.1889 352.642 72.8049 352.829 73.3462 353.202C73.8969 353.566 74.3262 354.07 74.6342 354.714C74.9515 355.349 75.1102 356.077 75.1102 356.898ZM73.2202 356.898C73.2202 356.151 73.0569 355.545 72.7302 355.078C72.4129 354.602 72.0022 354.364 71.4982 354.364C70.9755 354.364 70.5555 354.602 70.2382 355.078C69.9209 355.545 69.7622 356.151 69.7622 356.898C69.7622 357.645 69.9209 358.251 70.2382 358.718C70.5555 359.185 70.9755 359.418 71.4982 359.418C72.0022 359.418 72.4129 359.185 72.7302 358.718C73.0569 358.251 73.2202 357.645 73.2202 356.898ZM74.621 373.306V375H68.937V373.306H70.925V369.064C70.813 369.204 70.6217 369.353 70.351 369.512C70.0897 369.671 69.8003 369.806 69.483 369.918C69.175 370.03 68.8997 370.086 68.657 370.086V368.336C68.825 368.336 69.0257 368.285 69.259 368.182C69.5017 368.07 69.7397 367.939 69.973 367.79C70.2157 367.641 70.421 367.496 70.589 367.356C70.7663 367.207 70.8783 367.09 70.925 367.006H72.843V373.306H74.621ZM75.1102 384.898C75.1102 385.719 74.9515 386.452 74.6342 387.096C74.3262 387.731 73.8969 388.23 73.3462 388.594C72.8049 388.958 72.1889 389.14 71.4982 389.14C70.8075 389.14 70.1869 388.958 69.6362 388.594C69.0949 388.23 68.6655 387.731 68.3482 387.096C68.0402 386.452 67.8862 385.719 67.8862 384.898C67.8862 384.077 68.0402 383.349 68.3482 382.714C68.6655 382.07 69.0949 381.566 69.6362 381.202C70.1869 380.829 70.8075 380.642 71.4982 380.642C72.1889 380.642 72.8049 380.829 73.3462 381.202C73.8969 381.566 74.3262 382.07 74.6342 382.714C74.9515 383.349 75.1102 384.077 75.1102 384.898ZM73.2202 384.898C73.2202 384.151 73.0569 383.545 72.7302 383.078C72.4129 382.602 72.0022 382.364 71.4982 382.364C70.9755 382.364 70.5555 382.602 70.2382 383.078C69.9209 383.545 69.7622 384.151 69.7622 384.898C69.7622 385.645 69.9209 386.251 70.2382 386.718C70.5555 387.185 70.9755 387.418 71.4982 387.418C72.0022 387.418 72.4129 387.185 72.7302 386.718C73.0569 386.251 73.2202 385.645 73.2202 384.898ZM74.621 401.306V403H68.937V401.306H70.925V397.064C70.813 397.204 70.6217 397.353 70.351 397.512C70.0897 397.671 69.8003 397.806 69.483 397.918C69.175 398.03 68.8997 398.086 68.657 398.086V396.336C68.825 396.336 69.0257 396.285 69.259 396.182C69.5017 396.07 69.7397 395.939 69.973 395.79C70.2157 395.641 70.421 395.496 70.589 395.356C70.7663 395.207 70.8783 395.09 70.925 395.006H72.843V401.306H74.621ZM75.1102 412.898C75.1102 413.719 74.9515 414.452 74.6342 415.096C74.3262 415.731 73.8969 416.23 73.3462 416.594C72.8049 416.958 72.1889 417.14 71.4982 417.14C70.8075 417.14 70.1869 416.958 69.6362 416.594C69.0949 416.23 68.6655 415.731 68.3482 415.096C68.0402 414.452 67.8862 413.719 67.8862 412.898C67.8862 412.077 68.0402 411.349 68.3482 410.714C68.6655 410.07 69.0949 409.566 69.6362 409.202C70.1869 408.829 70.8075 408.642 71.4982 408.642C72.1889 408.642 72.8049 408.829 73.3462 409.202C73.8969 409.566 74.3262 410.07 74.6342 410.714C74.9515 411.349 75.1102 412.077 75.1102 412.898ZM73.2202 412.898C73.2202 412.151 73.0569 411.545 72.7302 411.078C72.4129 410.602 72.0022 410.364 71.4982 410.364C70.9755 410.364 70.5555 410.602 70.2382 411.078C69.9209 411.545 69.7622 412.151 69.7622 412.898C69.7622 413.645 69.9209 414.251 70.2382 414.718C70.5555 415.185 70.9755 415.418 71.4982 415.418C72.0022 415.418 72.4129 415.185 72.7302 414.718C73.0569 414.251 73.2202 413.645 73.2202 412.898Z" fill="url(#paint2_linear_2_3)"/>
<path d="M412.621 108.306V110H406.937V108.306H408.925V104.064C408.813 104.204 408.622 104.353 408.351 104.512C408.09 104.671 407.8 104.806 407.483 104.918C407.175 105.03 406.9 105.086 406.657 105.086V103.336C406.825 103.336 407.026 103.285 407.259 103.182C407.502 103.07 407.74 102.939 407.973 102.79C408.216 102.641 408.421 102.496 408.589 102.356C408.766 102.207 408.878 102.09 408.925 102.006H410.843V108.306H412.621ZM412.621 122.306V124H406.937V122.306H408.925V118.064C408.813 118.204 408.622 118.353 408.351 118.512C408.09 118.671 407.8 118.806 407.483 118.918C407.175 119.03 406.9 119.086 406.657 119.086V117.336C406.825 117.336 407.026 117.285 407.259 117.182C407.502 117.07 407.74 116.939 407.973 116.79C408.216 116.641 408.421 116.496 408.589 116.356C408.766 116.207 408.878 116.09 408.925 116.006H410.843V122.306H412.621ZM413.11 133.898C413.11 134.719 412.952 135.452 412.634 136.096C412.326 136.731 411.897 137.23 411.346 137.594C410.805 137.958 410.189 138.14 409.498 138.14C408.808 138.14 408.187 137.958 407.636 137.594C407.095 137.23 406.666 136.731 406.348 136.096C406.04 135.452 405.886 134.719 405.886 133.898C405.886 133.077 406.04 132.349 406.348 131.714C406.666 131.07 407.095 130.566 407.636 130.202C408.187 129.829 408.808 129.642 409.498 129.642C410.189 129.642 410.805 129.829 411.346 130.202C411.897 130.566 412.326 131.07 412.634 131.714C412.952 132.349 413.11 133.077 413.11 133.898ZM411.22 133.898C411.22 133.151 411.057 132.545 410.73 132.078C410.413 131.602 410.002 131.364 409.498 131.364C408.976 131.364 408.556 131.602 408.238 132.078C407.921 132.545 407.762 133.151 407.762 133.898C407.762 134.645 407.921 135.251 408.238 135.718C408.556 136.185 408.976 136.418 409.498 136.418C410.002 136.418 410.413 136.185 410.73 135.718C411.057 135.251 411.22 134.645 411.22 133.898ZM412.621 150.306V152H406.937V150.306H408.925V146.064C408.813 146.204 408.622 146.353 408.351 146.512C408.09 146.671 407.8 146.806 407.483 146.918C407.175 147.03 406.9 147.086 406.657 147.086V145.336C406.825 145.336 407.026 145.285 407.259 145.182C407.502 145.07 407.74 144.939 407.973 144.79C408.216 144.641 408.421 144.496 408.589 144.356C408.766 144.207 408.878 144.09 408.925 144.006H410.843V150.306H412.621ZM412.621 164.306V166H406.937V164.306H408.925V160.064C408.813 160.204 408.622 160.353 408.351 160.512C408.09 160.671 407.8 160.806 407.483 160.918C407.175 161.03 406.9 161.086 406.657 161.086V159.336C406.825 159.336 407.026 159.285 407.259 159.182C407.502 159.07 407.74 158.939 407.973 158.79C408.216 158.641 408.421 158.496 408.589 158.356C408.766 158.207 408.878 158.09 408.925 158.006H410.843V164.306H412.621ZM412.621 178.306V180H406.937V178.306H408.925V174.064C408.813 174.204 408.622 174.353 408.351 174.512C408.09 174.671 407.8 174.806 407.483 174.918C407.175 175.03 406.9 175.086 406.657 175.086V173.336C406.825 173.336 407.026 173.285 407.259 173.182C407.502 173.07 407.74 172.939 407.973 172.79C408.216 172.641 408.421 172.496 408.589 172.356C408.766 172.207 408.878 172.09 408.925 172.006H410.843V178.306H412.621ZM413.11 189.898C413.11 190.719 412.952 191.452 412.634 192.096C412.326 192.731 411.897 193.23 411.346 193.594C410.805 193.958 410.189 194.14 409.498 194.14C408.808 194.14 408.187 193.958 407.636 193.594C407.095 193.23 406.666 192.731 406.348 192.096C406.04 191.452 405.886 190.719 405.886 189.898C405.886 189.077 406.04 188.349 406.348 187.714C406.666 187.07 407.095 186.566 407.636 186.202C408.187 185.829 408.808 185.642 409.498 185.642C410.189 185.642 410.805 185.829 411.346 186.202C411.897 186.566 412.326 187.07 412.634 187.714C412.952 188.349 413.11 189.077 413.11 189.898ZM411.22 189.898C411.22 189.151 411.057 188.545 410.73 188.078C410.413 187.602 410.002 187.364 409.498 187.364C408.976 187.364 408.556 187.602 408.238 188.078C407.921 188.545 407.762 189.151 407.762 189.898C407.762 190.645 407.921 191.251 408.238 191.718C408.556 192.185 408.976 192.418 409.498 192.418C410.002 192.418 410.413 192.185 410.73 191.718C411.057 191.251 411.22 190.645 411.22 189.898ZM412.621 206.306V208H406.937V206.306H408.925V202.064C408.813 202.204 408.622 202.353 408.351 202.512C408.09 202.671 407.8 202.806 407.483 202.918C407.175 203.03 406.9 203.086 406.657 203.086V201.336C406.825 201.336 407.026 201.285 407.259 201.182C407.502 201.07 407.74 200.939 407.973 200.79C408.216 200.641 408.421 200.496 408.589 200.356C408.766 200.207 408.878 200.09 408.925 200.006H410.843V206.306H412.621ZM413.11 217.898C413.11 218.719 412.952 219.452 412.634 220.096C412.326 220.731 411.897 221.23 411.346 221.594C410.805 221.958 410.189 222.14 409.498 222.14C408.808 222.14 408.187 221.958 407.636 221.594C407.095 221.23 406.666 220.731 406.348 220.096C406.04 219.452 405.886 218.719 405.886 217.898C405.886 217.077 406.04 216.349 406.348 215.714C406.666 215.07 407.095 214.566 407.636 214.202C408.187 213.829 408.808 213.642 409.498 213.642C410.189 213.642 410.805 213.829 411.346 214.202C411.897 214.566 412.326 215.07 412.634 215.714C412.952 216.349 413.11 217.077 413.11 217.898ZM411.22 217.898C411.22 217.151 411.057 216.545 410.73 216.078C410.413 215.602 410.002 215.364 409.498 215.364C408.976 215.364 408.556 215.602 408.238 216.078C407.921 216.545 407.762 217.151 407.762 217.898C407.762 218.645 407.921 219.251 408.238 219.718C408.556 220.185 408.976 220.418 409.498 220.418C410.002 220.418 410.413 220.185 410.73 219.718C411.057 219.251 411.22 218.645 411.22 217.898ZM412.621 234.306V236H406.937V234.306H408.925V230.064C408.813 230.204 408.622 230.353 408.351 230.512C408.09 230.671 407.8 230.806 407.483 230.918C407.175 231.03 406.9 231.086 406.657 231.086V229.336C406.825 229.336 407.026 229.285 407.259 229.182C407.502 229.07 407.74 228.939 407.973 228.79C408.216 228.641 408.421 228.496 408.589 228.356C408.766 228.207 408.878 228.09 408.925 228.006H410.843V234.306H412.621ZM413.11 245.898C413.11 246.719 412.952 247.452 412.634 248.096C412.326 248.731 411.897 249.23 411.346 249.594C410.805 249.958 410.189 250.14 409.498 250.14C408.808 250.14 408.187 249.958 407.636 249.594C407.095 249.23 406.666 248.731 406.348 248.096C406.04 247.452 405.886 246.719 405.886 245.898C405.886 245.077 406.04 244.349 406.348 243.714C406.666 243.07 407.095 242.566 407.636 242.202C408.187 241.829 408.808 241.642 409.498 241.642C410.189 241.642 410.805 241.829 411.346 242.202C411.897 242.566 412.326 243.07 412.634 243.714C412.952 244.349 413.11 245.077 413.11 245.898ZM411.22 245.898C411.22 245.151 411.057 244.545 410.73 244.078C410.413 243.602 410.002 243.364 409.498 243.364C408.976 243.364 408.556 243.602 408.238 244.078C407.921 244.545 407.762 245.151 407.762 245.898C407.762 246.645 407.921 247.251 408.238 247.718C408.556 248.185 408.976 248.418 409.498 248.418C410.002 248.418 410.413 248.185 410.73 247.718C411.057 247.251 411.22 246.645 411.22 245.898Z" fill="url(#paint3_linear_2_3)"/>
<path d="M92 254.163C192.417 165.118 264.524 158.827 370.748 254.163C266.943 348.53 190.239 343.933 92 254.163Z" fill="#E83752"/>
<circle cx="231.374" cy="254.203" r="52.7492" fill="#0A0909"/>
<path d="M223.631 289.53L225.809 246.46C220.485 243.798 217.34 240.169 216.856 233.152C216.856 224.441 223.389 218.876 231.374 218.876C239.117 218.876 245.408 225.167 245.408 233.152C245.408 239.685 240.327 245.976 235.004 246.46L236.455 268.237H241.295V275.496H237.423V278.884H244.924V289.53H223.631Z" fill="#E83752"/>
<path d="M246.006 348H219.746V368.45C219.746 373.329 224.331 378 228.916 378H246.006V370.63H229.541C226.832 370.63 226.207 369.176 226.207 366.893H242.15V359.419H226.207V355.474L246.11 355.682L246.006 348Z" fill="#F5F0F1"/>
<path d="M279.873 348H249.966V366.893H272.578V370.63H249.966V378H279.873V366.27C279.873 362.221 276.017 359.419 272.995 359.419H257.364V355.474H279.873V348Z" fill="#F5F0F1"/>
<path d="M309.989 348H283.833V368.761C283.833 373.121 288.001 378 293.211 378H309.989V370.63H293.211C291.127 370.63 290.085 369.073 290.085 366.893H306.133V359.419H290.085V355.474H309.989V348Z" fill="#F5F0F1"/>
<path d="M320.93 348C316.97 348 313.74 351.737 313.74 355.474V368.242C313.74 372.81 317.908 378 323.223 378H340V370.63H326.974C324.056 370.63 321.347 368.657 321.347 365.958V355.474H340V348H320.93Z" fill="#F5F0F1"/>
<path fill-rule="evenodd" clip-rule="evenodd" d="M148.364 348H128.878C125.856 348 122 350.907 122 354.955V369.176C122 372.498 126.168 378 131.691 378H152.116V370.63H159.619V378H170.039C176.507 376.533 179.486 374.575 182.231 366.581V360.042C182.231 354.228 174.728 348 170.352 348H164.62C157.951 348 152.116 354.436 152.116 359.73V370.63H134.817C131.587 370.63 129.503 368.554 129.503 365.232V355.474H148.364V348ZM159.619 370.63V361.806C159.619 357.862 163.683 355.682 167.226 355.682C171.185 355.682 174.728 358.692 174.728 363.156C174.728 367.1 171.394 370.63 168.372 370.63H159.619Z" fill="#F5F0F1"/>
<path fill-rule="evenodd" clip-rule="evenodd" d="M185.879 348V378H199.946C209.638 378 215.89 368.554 215.89 361.806V355.474H208.491V348H185.879ZM208.491 355.474H193.381V370.63H199.946C203.906 370.63 208.491 366.581 208.491 361.806V355.474Z" fill="#F5F0F1"/>
<rect x="90" y="185" width="281" height="138" fill="url(#paint4_linear_2_3)"/>
<rect x="122" y="348" width="218" height="30" fill="url(#paint5_linear_2_3)"/>
<circle cx="16" cy="185" r="16" fill="url(#paint6_linear_2_3)"/>
<circle cx="16" cy="185" r="8" fill="white"/>
<circle cx="426" cy="439" r="16" fill="url(#paint7_linear_2_3)"/>
<path d="M416 439.004C423.205 432.562 428.378 432.106 436 439.004C428.552 445.831 423.049 445.498 416 439.004Z" fill="white"/>
<circle cx="158" cy="470" r="16" fill="url(#paint8_linear_2_3)"/>
<path d="M155.661 479L156.195 468.027C154.89 467.349 154.119 466.425 154 464.637C154 462.418 155.602 461 157.559 461C159.458 461 161 462.603 161 464.637C161 466.301 159.754 467.904 158.449 468.027L158.805 473.575H159.992V475.425H159.042V476.288H160.881V479H155.661Z" fill="#F5F0F1"/>
<circle cx="371" cy="149" r="16" fill="url(#paint9_linear_2_3)"/>
<path d="M366.786 146.505H368.603C368.603 144.238 369.137 142.799 371.015 142.799C372.878 142.846 373.397 144.05 373.427 146.505H375.214C375.214 143.628 374.145 141 371.015 141C368.252 141 366.786 142.924 366.786 146.505Z" fill="white"/>
<path fill-rule="evenodd" clip-rule="evenodd" d="M365 148.93C365 148.007 365.763 147.1 366.786 147.1H375.214C376.237 147.1 377 147.882 377 148.93V155.373C377 156.234 376.16 157 375.214 157H366.786C365.702 157 365 156.124 365 155.17V148.93ZM369.794 151.432C369.794 151.964 370.023 152.339 370.405 152.543V153.981C370.405 154.357 370.679 154.576 371 154.576C371.321 154.576 371.611 154.372 371.611 153.981V152.543C372.023 152.214 372.206 151.979 372.206 151.432C372.206 150.65 371.687 150.228 371 150.228C370.374 150.228 369.794 150.697 369.794 151.432Z" fill="white"/>
<defs>
<linearGradient id="paint0_linear_2_3" x1="300" y1="-2" x2="300" y2="516" gradientUnits="userSpaceOnUse">
<stop stop-color="#E83752"/>
<stop offset="0.421875" stop-color="#E83752" stop-opacity="0"/>
<stop offset="0.614583" stop-color="#E83752" stop-opacity="0"/>
<stop offset="1" stop-color="#E83752"/>
</linearGradient>
<linearGradient id="paint1_linear_2_3" x1="179" y1="59" x2="179" y2="185" gradientUnits="userSpaceOnUse">
<stop stop-color="#E83752"/>
<stop offset="1" stop-color="#E83752" stop-opacity="0"/>
</linearGradient>
<linearGradient id="paint2_linear_2_3" x1="71.5" y1="111" x2="71.5" y2="419" gradientUnits="userSpaceOnUse">
<stop stop-color="#E83752"/>
<stop offset="1" stop-color="#E83752" stop-opacity="0"/>
</linearGradient>
<linearGradient id="paint3_linear_2_3" x1="409.5" y1="98" x2="409.5" y2="252" gradientUnits="userSpaceOnUse">
<stop stop-color="#E83752"/>
<stop offset="1" stop-color="#E83752" stop-opacity="0"/>
</linearGradient>
<linearGradient id="paint4_linear_2_3" x1="371" y1="259.166" x2="90.003" y2="257.811" gradientUnits="userSpaceOnUse">
<stop stop-color="#0A0909"/>
<stop offset="1" stop-color="#0A0909" stop-opacity="0"/>
</linearGradient>
<linearGradient id="paint5_linear_2_3" x1="340" y1="363" x2="122.043" y2="360.372" gradientUnits="userSpaceOnUse">
<stop stop-color="#0A0909"/>
<stop offset="1" stop-color="#0A0909" stop-opacity="0"/>
</linearGradient>
<linearGradient id="paint6_linear_2_3" x1="32" y1="169" x2="-0.027983" y2="200.972" gradientUnits="userSpaceOnUse">
<stop stop-color="#FA5770"/>
<stop offset="1" stop-color="#E83752" stop-opacity="0"/>
</linearGradient>
<linearGradient id="paint7_linear_2_3" x1="442" y1="423" x2="409.972" y2="454.972" gradientUnits="userSpaceOnUse">
<stop stop-color="#FA5770"/>
<stop offset="1" stop-color="#E83752" stop-opacity="0"/>
</linearGradient>
<linearGradient id="paint8_linear_2_3" x1="174" y1="454" x2="141.972" y2="485.972" gradientUnits="userSpaceOnUse">
<stop stop-color="#FA5770"/>
<stop offset="1" stop-color="#E83752" stop-opacity="0"/>
</linearGradient>
<linearGradient id="paint9_linear_2_3" x1="387" y1="133" x2="354.972" y2="164.972" gradientUnits="userSpaceOnUse">
<stop stop-color="#FA5770"/>
<stop offset="1" stop-color="#E83752" stop-opacity="0"/>
</linearGradient>
</defs>
</svg>
