<svg width="597" height="804" viewBox="0 0 597 804" fill="none" xmlns="http://www.w3.org/2000/svg">
<rect x="421.5" y="177.5" width="71" height="451" rx="1.5" stroke="url(#paint0_linear_1300_419)"/>
<rect x="317.5" y="177.5" width="71" height="451" rx="1.5" stroke="url(#paint1_linear_1300_419)"/>
<rect x="213.5" y="177.5" width="71" height="451" rx="1.5" stroke="url(#paint2_linear_1300_419)"/>
<rect x="109.5" y="177.5" width="71" height="451" rx="1.5" stroke="url(#paint3_linear_1300_419)"/>
<rect x="5.5" y="177.5" width="71" height="451" rx="1.5" stroke="url(#paint4_linear_1300_419)"/>
<rect x="525.5" y="177.5" width="71" height="451" rx="1.5" stroke="url(#paint5_linear_1300_419)"/>
<rect x="5.5" y="356.5" width="71" height="95" rx="1.5" stroke="url(#paint6_linear_1300_419)"/>
<rect x="109.5" y="356.5" width="71" height="95" rx="1.5" stroke="url(#paint7_linear_1300_419)"/>
<rect x="213.5" y="356.5" width="71" height="95" rx="1.5" stroke="url(#paint8_linear_1300_419)"/>
<rect x="317.5" y="356.5" width="71" height="95" rx="1.5" stroke="url(#paint9_linear_1300_419)"/>
<path d="M62.4878 377.88V429H52.6238V407.184H29.4398V429H19.5038V377.88H29.4398V398.544H52.6238V377.88H62.4878Z" fill="white"/>
<path d="M139.537 376.88H149.617L168.409 428H158.185L153.433 415.256H135.577L130.896 428H120.673L139.537 376.88ZM151.633 408.272L144.577 387.176L137.233 408.272H151.633Z" fill="white"/>
<path d="M226.552 403.08C226.552 399.96 227.104 396.888 228.208 393.864C229.36 390.84 231.016 388.104 233.176 385.656C235.336 383.208 237.976 381.264 241.096 379.824C244.216 378.336 247.768 377.592 251.752 377.592C256.408 377.592 260.464 378.624 263.92 380.688C267.376 382.752 269.944 385.44 271.624 388.752L263.992 394.008C263.128 392.088 262 390.576 260.608 389.472C259.216 388.368 257.704 387.576 256.072 387.096C254.488 386.616 252.952 386.376 251.464 386.376C248.968 386.376 246.784 386.88 244.912 387.888C243.088 388.896 241.552 390.216 240.304 391.848C239.056 393.48 238.12 395.304 237.496 397.32C236.92 399.336 236.632 401.352 236.632 403.368C236.632 406.392 237.256 409.224 238.504 411.864C239.752 414.456 241.504 416.568 243.76 418.2C246.016 419.832 248.632 420.648 251.608 420.648C253.144 420.648 254.728 420.384 256.36 419.856C258.04 419.328 259.576 418.488 260.968 417.336C262.36 416.184 263.44 414.696 264.208 412.872L272.344 417.552C271.288 420.096 269.632 422.256 267.376 424.032C265.12 425.76 262.576 427.104 259.744 428.064C256.912 428.976 254.104 429.432 251.32 429.432C247.672 429.432 244.336 428.688 241.312 427.2C238.336 425.664 235.744 423.648 233.536 421.152C231.328 418.608 229.6 415.776 228.352 412.656C227.152 409.488 226.552 406.296 226.552 403.08Z" fill="white"/>
<path d="M333.746 429V377.952H343.682V402.216L365.138 377.88H376.082L356.498 400.56L377.306 429H366.074L350.162 406.968L343.682 413.736V429H333.746Z" fill="white"/>
<path d="M476.203 419.288V428H440.707V376.88H475.555V385.592H450.643V397.904H472.171V405.968H450.643V419.288H476.203Z" fill="white"/>
<path d="M542.387 428V376.88H564.995C567.347 376.88 569.507 377.36 571.475 378.32C573.491 379.28 575.219 380.576 576.659 382.208C578.147 383.84 579.275 385.664 580.043 387.68C580.859 389.696 581.267 391.76 581.267 393.872C581.267 397.136 580.427 400.136 578.747 402.872C577.115 405.608 574.883 407.576 572.051 408.776L583.715 428H572.771L562.259 410.864H552.323V428H542.387ZM552.323 402.152H564.779C566.651 402.152 568.187 401.36 569.387 399.776C570.635 398.144 571.259 396.176 571.259 393.872C571.259 392.288 570.923 390.872 570.251 389.624C569.579 388.376 568.715 387.392 567.659 386.672C566.651 385.952 565.547 385.592 564.347 385.592H552.323V402.152Z" fill="white"/>
<path opacity="0.4" d="M13 318L38 253L64 318" stroke="url(#paint10_linear_1300_419)" stroke-width="8"/>
<path opacity="0.4" d="M13 555H57V532M57 532V483L13 511L57 532Z" stroke="url(#paint11_linear_1300_419)" stroke-width="8"/>
<path opacity="0.4" d="M171 552H119L145.5 487L171 552Z" stroke="url(#paint12_linear_1300_419)" stroke-width="8"/>
<path opacity="0.4" d="M279 485H234L279 520L234 553H279" stroke="url(#paint13_linear_1300_419)" stroke-width="8"/>
<path opacity="0.4" d="M329 484H378M344.5 520H378M378 555H329" stroke="url(#paint14_linear_1300_419)" stroke-width="8"/>
<path opacity="0.4" d="M118 248V323H170.5M118 248H170.5V323M118 248L170.5 323" stroke="url(#paint15_linear_1300_419)" stroke-width="8"/>
<path opacity="0.4" d="M233 612V644H255M279 612V644H255M255 606V644M255 644V684" stroke="url(#paint16_linear_1300_419)" stroke-width="8"/>
<path opacity="0.4" d="M223 322H267V299M267 299V250L223 278L267 299Z" stroke="url(#paint17_linear_1300_419)" stroke-width="8"/>
<path opacity="0.4" d="M163 609V645M163 681V645M163 645L127 681M163 645L127 609" stroke="url(#paint18_linear_1300_419)" stroke-width="8"/>
<path opacity="0.4" d="M9 678L34 613L60 678" stroke="url(#paint19_linear_1300_419)" stroke-width="8"/>
<path opacity="0.4" d="M327 608V683H379.5M327 608H379.5V683M327 608L379.5 683" stroke="url(#paint20_linear_1300_419)" stroke-width="8"/>
<path opacity="0.4" d="M374 252H329L374 287L329 320H374" stroke="url(#paint21_linear_1300_419)" stroke-width="8"/>
<path opacity="0.4" d="M14 131H63M29.5 167H63M63 202H14" stroke="url(#paint22_linear_1300_419)" stroke-width="8"/>
<path opacity="0.4" d="M121 133V165H143M167 133V165H143M143 127V165M143 165V205" stroke="url(#paint23_linear_1300_419)" stroke-width="8"/>
<path opacity="0.4" d="M271 199H219L245.5 134L271 199Z" stroke="url(#paint24_linear_1300_419)" stroke-width="8"/>
<path opacity="0.4" d="M329 202H373V179M373 179V130L329 158L373 179Z" stroke="url(#paint25_linear_1300_419)" stroke-width="8"/>
<rect x="421.5" y="356.5" width="71" height="95" rx="1.5" stroke="url(#paint26_linear_1300_419)"/>
<rect x="525.5" y="356.5" width="71" height="95" rx="1.5" stroke="url(#paint27_linear_1300_419)"/>
<path opacity="0.4" d="M431 482V557H483.5M431 482H483.5V557M431 482L483.5 557" stroke="url(#paint28_linear_1300_419)" stroke-width="8"/>
<path opacity="0.4" d="M428 250H477M443.5 286H477M477 321H428" stroke="url(#paint29_linear_1300_419)" stroke-width="8"/>
<path opacity="0.4" d="M538 486V518H560M584 486V518H560M560 480V518M560 518V558" stroke="url(#paint30_linear_1300_419)" stroke-width="8"/>
<path opacity="0.4" d="M9 80H53V57M53 57V8L9 36L53 57Z" stroke="url(#paint31_linear_1300_419)" stroke-width="8"/>
<path opacity="0.4" d="M167 77H115L141.5 12L167 77Z" stroke="url(#paint32_linear_1300_419)" stroke-width="8"/>
<path opacity="0.4" d="M275 10H230L275 45L230 78H275" stroke="url(#paint33_linear_1300_419)" stroke-width="8"/>
<path opacity="0.4" d="M325 9H374M340.5 45H374M374 80H325" stroke="url(#paint34_linear_1300_419)" stroke-width="8"/>
<path opacity="0.4" d="M427 7V82H479.5M427 7H479.5V82M427 7L479.5 82" stroke="url(#paint35_linear_1300_419)" stroke-width="8"/>
<path opacity="0.4" d="M534 11V43H556M580 11V43H556M556 5V43M556 43V83" stroke="url(#paint36_linear_1300_419)" stroke-width="8"/>
<path opacity="0.4" d="M484 611H439L484 646L439 679H484" stroke="url(#paint37_linear_1300_419)" stroke-width="8"/>
<path opacity="0.4" d="M590 318H538L564.5 253L590 318Z" stroke="url(#paint38_linear_1300_419)" stroke-width="8"/>
<path opacity="0.4" d="M538 681H582V658M582 658V609L538 637L582 658Z" stroke="url(#paint39_linear_1300_419)" stroke-width="8"/>
<path opacity="0.4" d="M467 130V166M467 202V166M467 166L431 202M467 166L431 130" stroke="url(#paint40_linear_1300_419)" stroke-width="8"/>
<path opacity="0.4" d="M536 133V165H558M582 133V165H558M558 127V165M558 165V205" stroke="url(#paint41_linear_1300_419)" stroke-width="8"/>
<path opacity="0.4" d="M22 729H71M37.5 765H71M71 800H22" stroke="url(#paint42_linear_1300_419)" stroke-width="8"/>
<path opacity="0.4" d="M129 731V763H151M175 731V763H151M151 725V763M151 763V803" stroke="url(#paint43_linear_1300_419)" stroke-width="8"/>
<path opacity="0.4" d="M279 797H227L253.5 732L279 797Z" stroke="url(#paint44_linear_1300_419)" stroke-width="8"/>
<path opacity="0.4" d="M337 800H381V777M381 777V728L337 756L381 777Z" stroke="url(#paint45_linear_1300_419)" stroke-width="8"/>
<path opacity="0.4" d="M475 728V764M475 800V764M475 764L439 800M475 764L439 728" stroke="url(#paint46_linear_1300_419)" stroke-width="8"/>
<path opacity="0.4" d="M544 731V763H566M590 731V763H566M566 725V763M566 763V803" stroke="url(#paint47_linear_1300_419)" stroke-width="8"/>
<path d="M172.784 310V292.96H180.008C180.792 292.96 181.512 293.12 182.168 293.44C182.84 293.76 183.416 294.192 183.896 294.736C184.376 295.28 184.752 295.888 185.024 296.56C185.296 297.232 185.432 297.92 185.432 298.624C185.432 299.584 185.208 300.496 184.76 301.36C184.312 302.224 183.688 302.928 182.888 303.472C182.104 304.016 181.184 304.288 180.128 304.288H176.096V310H172.784ZM176.096 301.384H179.936C180.544 301.384 181.048 301.136 181.448 300.64C181.864 300.128 182.072 299.456 182.072 298.624C182.072 297.744 181.84 297.064 181.376 296.584C180.912 296.104 180.384 295.864 179.792 295.864H176.096V301.384ZM186.397 306.28C186.397 305.464 186.621 304.752 187.069 304.144C187.533 303.52 188.173 303.04 188.989 302.704C189.805 302.368 190.741 302.2 191.797 302.2C192.325 302.2 192.861 302.248 193.405 302.344C193.949 302.424 194.421 302.544 194.821 302.704V302.032C194.821 301.232 194.581 300.616 194.101 300.184C193.637 299.752 192.941 299.536 192.013 299.536C191.325 299.536 190.669 299.656 190.045 299.896C189.421 300.136 188.765 300.488 188.077 300.952L187.045 298.84C187.877 298.296 188.725 297.888 189.589 297.616C190.469 297.344 191.389 297.208 192.349 297.208C194.141 297.208 195.533 297.656 196.525 298.552C197.533 299.448 198.037 300.728 198.037 302.392V306.4C198.037 306.752 198.093 307 198.205 307.144C198.317 307.272 198.517 307.352 198.805 307.384V310C198.517 310.064 198.253 310.104 198.013 310.12C197.789 310.152 197.597 310.168 197.437 310.168C196.797 310.168 196.309 310.024 195.973 309.736C195.637 309.448 195.437 309.096 195.373 308.68L195.301 308.032C194.741 308.752 194.053 309.304 193.237 309.688C192.437 310.056 191.613 310.24 190.765 310.24C189.917 310.24 189.165 310.072 188.509 309.736C187.853 309.384 187.333 308.912 186.949 308.32C186.581 307.712 186.397 307.032 186.397 306.28ZM194.221 306.928C194.621 306.544 194.821 306.176 194.821 305.824V304.552C193.989 304.216 193.149 304.048 192.301 304.048C191.453 304.048 190.765 304.232 190.237 304.6C189.709 304.952 189.445 305.424 189.445 306.016C189.445 306.496 189.637 306.928 190.021 307.312C190.405 307.696 190.957 307.888 191.677 307.888C192.157 307.888 192.621 307.8 193.069 307.624C193.533 307.448 193.917 307.216 194.221 306.928ZM208.53 300.208C207.554 300.208 206.682 300.4 205.914 300.784C205.146 301.152 204.594 301.688 204.258 302.392V310H201.042V297.424H203.994V300.112C204.426 299.248 204.986 298.568 205.674 298.072C206.378 297.576 207.114 297.304 207.882 297.256C208.218 297.256 208.434 297.264 208.53 297.28V300.208ZM217.859 309.352C217.427 309.544 216.891 309.736 216.251 309.928C215.627 310.12 214.979 310.216 214.307 310.216C213.715 310.216 213.171 310.112 212.675 309.904C212.179 309.696 211.779 309.368 211.475 308.92C211.187 308.456 211.043 307.856 211.043 307.12V299.896H209.387V297.424H211.043V293.344H214.259V297.424H216.899V299.896H214.259V306.04C214.259 306.472 214.371 306.784 214.595 306.976C214.835 307.168 215.123 307.264 215.459 307.264C215.795 307.264 216.123 307.208 216.443 307.096C216.763 306.984 217.019 306.888 217.211 306.808L217.859 309.352ZM219.534 295.672V292.48H222.75V295.672H219.534ZM219.534 310V297.424H222.75V310H219.534ZM231.508 310.24C230.148 310.24 228.972 309.936 227.98 309.328C226.988 308.72 226.22 307.92 225.676 306.928C225.132 305.936 224.86 304.864 224.86 303.712C224.86 302.544 225.124 301.464 225.652 300.472C226.196 299.48 226.964 298.688 227.956 298.096C228.948 297.504 230.124 297.208 231.484 297.208C232.86 297.208 234.028 297.504 234.988 298.096C235.964 298.688 236.692 299.464 237.172 300.424L234.028 301.384C233.468 300.424 232.612 299.944 231.46 299.944C230.836 299.944 230.276 300.104 229.78 300.424C229.284 300.728 228.892 301.168 228.604 301.744C228.316 302.304 228.172 302.96 228.172 303.712C228.172 304.448 228.316 305.104 228.604 305.68C228.908 306.24 229.308 306.688 229.804 307.024C230.3 307.344 230.852 307.504 231.46 307.504C232.036 307.504 232.564 307.368 233.044 307.096C233.54 306.808 233.884 306.448 234.076 306.016L237.22 306.976C236.788 307.92 236.068 308.704 235.06 309.328C234.068 309.936 232.884 310.24 231.508 310.24ZM239.198 295.672V292.48H242.414V295.672H239.198ZM239.198 310V297.424H242.414V310H239.198ZM252.852 310.24C251.86 310.24 250.996 310.016 250.26 309.568C249.524 309.12 248.948 308.528 248.532 307.792V315.112H245.316V297.424H248.124V299.584C248.588 298.848 249.188 298.272 249.924 297.856C250.676 297.424 251.524 297.208 252.468 297.208C253.604 297.208 254.612 297.504 255.492 298.096C256.372 298.672 257.068 299.456 257.58 300.448C258.092 301.424 258.348 302.504 258.348 303.688C258.348 304.92 258.108 306.032 257.628 307.024C257.164 308 256.516 308.784 255.684 309.376C254.868 309.952 253.924 310.24 252.852 310.24ZM251.772 307.504C252.428 307.504 252.996 307.328 253.476 306.976C253.972 306.608 254.356 306.136 254.628 305.56C254.916 304.968 255.06 304.344 255.06 303.688C255.06 302.984 254.908 302.352 254.604 301.792C254.3 301.216 253.884 300.768 253.356 300.448C252.844 300.112 252.252 299.944 251.58 299.944C250.972 299.944 250.364 300.144 249.756 300.544C249.148 300.944 248.74 301.448 248.532 302.056V305.008C248.82 305.712 249.26 306.304 249.852 306.784C250.444 307.264 251.084 307.504 251.772 307.504ZM266.359 310.24C264.999 310.24 263.823 309.944 262.831 309.352C261.855 308.76 261.095 307.976 260.551 307C260.007 306.008 259.735 304.936 259.735 303.784C259.735 302.6 259.999 301.512 260.527 300.52C261.071 299.512 261.839 298.712 262.831 298.12C263.823 297.512 265.007 297.208 266.383 297.208C267.759 297.208 268.935 297.512 269.911 298.12C270.887 298.712 271.631 299.504 272.143 300.496C272.671 301.472 272.935 302.528 272.935 303.664C272.935 304.08 272.911 304.44 272.863 304.744H263.143C263.223 305.72 263.583 306.488 264.223 307.048C264.879 307.608 265.631 307.888 266.479 307.888C267.119 307.888 267.719 307.736 268.279 307.432C268.855 307.112 269.247 306.696 269.455 306.184L272.215 306.952C271.751 307.912 271.007 308.704 269.983 309.328C268.959 309.936 267.751 310.24 266.359 310.24ZM263.071 302.704H269.647C269.551 301.76 269.191 301 268.567 300.424C267.959 299.832 267.215 299.536 266.335 299.536C265.471 299.536 264.727 299.832 264.103 300.424C263.495 301 263.151 301.76 263.071 302.704ZM286.491 310.24C285.131 310.24 283.955 309.944 282.963 309.352C281.987 308.76 281.227 307.976 280.683 307C280.139 306.008 279.867 304.936 279.867 303.784C279.867 302.6 280.131 301.512 280.659 300.52C281.203 299.512 281.971 298.712 282.963 298.12C283.955 297.512 285.139 297.208 286.515 297.208C287.891 297.208 289.067 297.512 290.043 298.12C291.019 298.712 291.763 299.504 292.275 300.496C292.803 301.472 293.067 302.528 293.067 303.664C293.067 304.08 293.043 304.44 292.995 304.744H283.275C283.355 305.72 283.715 306.488 284.355 307.048C285.011 307.608 285.763 307.888 286.611 307.888C287.251 307.888 287.851 307.736 288.411 307.432C288.987 307.112 289.379 306.696 289.587 306.184L292.347 306.952C291.883 307.912 291.139 308.704 290.115 309.328C289.091 309.936 287.883 310.24 286.491 310.24ZM283.203 302.704H289.779C289.683 301.76 289.323 301 288.699 300.424C288.091 299.832 287.347 299.536 286.467 299.536C285.603 299.536 284.859 299.832 284.235 300.424C283.627 301 283.283 301.76 283.203 302.704ZM305.424 310.24C304.352 310.24 303.328 310.064 302.352 309.712C301.376 309.36 300.536 308.84 299.832 308.152L300.984 306.064C301.736 306.672 302.472 307.12 303.192 307.408C303.912 307.696 304.616 307.84 305.304 307.84C305.928 307.84 306.424 307.728 306.792 307.504C307.176 307.28 307.368 306.944 307.368 306.496C307.368 306.032 307.136 305.72 306.672 305.56C306.208 305.384 305.56 305.168 304.728 304.912C303.8 304.624 303.024 304.328 302.4 304.024C301.776 303.72 301.304 303.352 300.984 302.92C300.68 302.488 300.528 301.928 300.528 301.24C300.528 300.008 300.992 299.024 301.92 298.288C302.848 297.552 304.08 297.184 305.616 297.184C306.512 297.184 307.36 297.328 308.16 297.616C308.96 297.888 309.688 298.336 310.344 298.96L309.048 301C307.816 300.04 306.624 299.56 305.472 299.56C304.96 299.56 304.504 299.656 304.104 299.848C303.72 300.04 303.528 300.376 303.528 300.856C303.528 301.304 303.712 301.624 304.08 301.816C304.464 302.008 305.04 302.216 305.808 302.44C306.8 302.744 307.64 303.04 308.328 303.328C309.032 303.616 309.56 303.984 309.912 304.432C310.28 304.88 310.464 305.488 310.464 306.256C310.464 307.504 310.008 308.48 309.096 309.184C308.184 309.888 306.96 310.24 305.424 310.24ZM318.484 310.24C317.124 310.24 315.948 309.944 314.956 309.352C313.98 308.76 313.22 307.976 312.676 307C312.132 306.008 311.86 304.936 311.86 303.784C311.86 302.6 312.124 301.512 312.652 300.52C313.196 299.512 313.964 298.712 314.956 298.12C315.948 297.512 317.132 297.208 318.508 297.208C319.884 297.208 321.06 297.512 322.036 298.12C323.012 298.712 323.756 299.504 324.268 300.496C324.796 301.472 325.06 302.528 325.06 303.664C325.06 304.08 325.036 304.44 324.988 304.744H315.268C315.348 305.72 315.708 306.488 316.348 307.048C317.004 307.608 317.756 307.888 318.604 307.888C319.244 307.888 319.844 307.736 320.404 307.432C320.98 307.112 321.372 306.696 321.58 306.184L324.34 306.952C323.876 307.912 323.132 308.704 322.108 309.328C321.084 309.936 319.876 310.24 318.484 310.24ZM315.196 302.704H321.772C321.676 301.76 321.316 301 320.692 300.424C320.084 299.832 319.34 299.536 318.46 299.536C317.596 299.536 316.852 299.832 316.228 300.424C315.62 301 315.276 301.76 315.196 302.704ZM340.32 309.352C339.888 309.544 339.352 309.736 338.712 309.928C338.088 310.12 337.44 310.216 336.768 310.216C336.176 310.216 335.632 310.112 335.136 309.904C334.64 309.696 334.24 309.368 333.936 308.92C333.648 308.456 333.504 307.856 333.504 307.12V299.896H331.848V297.424H333.504V293.344H336.72V297.424H339.36V299.896H336.72V306.04C336.72 306.472 336.832 306.784 337.056 306.976C337.296 307.168 337.584 307.264 337.92 307.264C338.256 307.264 338.584 307.208 338.904 307.096C339.224 306.984 339.48 306.888 339.672 306.808L340.32 309.352ZM347.639 310.24C346.263 310.24 345.079 309.944 344.087 309.352C343.111 308.744 342.359 307.944 341.831 306.952C341.303 305.96 341.039 304.888 341.039 303.736C341.039 302.568 341.303 301.488 341.831 300.496C342.375 299.504 343.135 298.712 344.111 298.12C345.103 297.512 346.279 297.208 347.639 297.208C348.999 297.208 350.167 297.512 351.143 298.12C352.135 298.712 352.895 299.504 353.423 300.496C353.951 301.488 354.215 302.568 354.215 303.736C354.215 304.888 353.951 305.96 353.423 306.952C352.895 307.944 352.135 308.744 351.143 309.352C350.167 309.944 348.999 310.24 347.639 310.24ZM344.351 303.736C344.351 304.472 344.495 305.128 344.783 305.704C345.071 306.264 345.463 306.704 345.959 307.024C346.455 307.344 347.015 307.504 347.639 307.504C348.247 307.504 348.799 307.344 349.295 307.024C349.791 306.688 350.183 306.24 350.471 305.68C350.775 305.104 350.927 304.448 350.927 303.712C350.927 302.992 350.775 302.352 350.471 301.792C350.183 301.216 349.791 300.768 349.295 300.448C348.799 300.112 348.247 299.944 347.639 299.944C347.015 299.944 346.455 300.112 345.959 300.448C345.463 300.768 345.071 301.216 344.783 301.792C344.495 302.352 344.351 303 344.351 303.736ZM363.874 300.208C362.898 300.208 362.026 300.4 361.258 300.784C360.49 301.152 359.938 301.688 359.602 302.392V310H356.386V297.424H359.338V300.112C359.77 299.248 360.33 298.568 361.018 298.072C361.722 297.576 362.458 297.304 363.226 297.256C363.562 297.256 363.778 297.264 363.874 297.28V300.208ZM377.355 310H374.139V302.944C374.139 301.936 373.963 301.2 373.611 300.736C373.259 300.272 372.771 300.04 372.147 300.04C371.715 300.04 371.275 300.152 370.827 300.376C370.395 300.6 370.003 300.912 369.651 301.312C369.299 301.696 369.043 302.144 368.883 302.656V310H365.667V297.424H368.571V299.752C369.035 298.968 369.707 298.352 370.587 297.904C371.467 297.44 372.459 297.208 373.563 297.208C374.347 297.208 374.987 297.352 375.483 297.64C375.979 297.912 376.363 298.288 376.635 298.768C376.907 299.232 377.091 299.76 377.187 300.352C377.299 300.944 377.355 301.544 377.355 302.152V310ZM385.984 310.24C384.624 310.24 383.448 309.944 382.456 309.352C381.48 308.76 380.72 307.976 380.176 307C379.632 306.008 379.36 304.936 379.36 303.784C379.36 302.6 379.624 301.512 380.152 300.52C380.696 299.512 381.464 298.712 382.456 298.12C383.448 297.512 384.632 297.208 386.008 297.208C387.384 297.208 388.56 297.512 389.536 298.12C390.512 298.712 391.256 299.504 391.768 300.496C392.296 301.472 392.56 302.528 392.56 303.664C392.56 304.08 392.536 304.44 392.488 304.744H382.768C382.848 305.72 383.208 306.488 383.848 307.048C384.504 307.608 385.256 307.888 386.104 307.888C386.744 307.888 387.344 307.736 387.904 307.432C388.48 307.112 388.872 306.696 389.08 306.184L391.84 306.952C391.376 307.912 390.632 308.704 389.608 309.328C388.584 309.936 387.376 310.24 385.984 310.24ZM382.696 302.704H389.272C389.176 301.76 388.816 301 388.192 300.424C387.584 299.832 386.84 299.536 385.96 299.536C385.096 299.536 384.352 299.832 383.728 300.424C383.12 301 382.776 301.76 382.696 302.704ZM400.164 305.296V297.424H403.38V304.6C403.38 306.536 404.076 307.504 405.468 307.504C406.092 307.504 406.692 307.32 407.268 306.952C407.86 306.568 408.34 305.992 408.708 305.224V297.424H411.924V306.4C411.924 306.752 411.98 307 412.092 307.144C412.204 307.272 412.404 307.352 412.692 307.384V310C412.372 310.064 412.1 310.104 411.876 310.12C411.668 310.136 411.476 310.144 411.3 310.144C410.724 310.144 410.252 310.016 409.884 309.76C409.532 309.488 409.324 309.12 409.26 308.656L409.188 307.648C408.628 308.512 407.908 309.16 407.028 309.592C406.148 310.024 405.18 310.24 404.124 310.24C402.828 310.24 401.844 309.824 401.172 308.992C400.5 308.144 400.164 306.912 400.164 305.296ZM434.656 310H431.44V302.944C431.44 301.952 431.264 301.224 430.912 300.76C430.576 300.28 430.104 300.04 429.496 300.04C428.856 300.04 428.256 300.288 427.696 300.784C427.136 301.264 426.736 301.896 426.496 302.68V310H423.28V302.944C423.28 301.936 423.104 301.2 422.752 300.736C422.416 300.272 421.944 300.04 421.336 300.04C420.712 300.04 420.112 300.28 419.536 300.76C418.976 301.24 418.576 301.872 418.336 302.656V310H415.12V297.424H418.024V299.752C418.488 298.936 419.12 298.312 419.92 297.88C420.736 297.432 421.664 297.208 422.704 297.208C423.744 297.208 424.552 297.464 425.128 297.976C425.72 298.488 426.096 299.12 426.256 299.872C426.752 299.008 427.4 298.352 428.2 297.904C429 297.44 429.896 297.208 430.888 297.208C431.672 297.208 432.304 297.352 432.784 297.64C433.28 297.912 433.664 298.288 433.936 298.768C434.208 299.232 434.392 299.76 434.488 300.352C434.6 300.944 434.656 301.544 434.656 302.152V310Z" fill="#E83752"/>
<defs>
<linearGradient id="paint0_linear_1300_419" x1="457" y1="177" x2="492.736" y2="626.157" gradientUnits="userSpaceOnUse">
<stop stop-color="#FA5770" stop-opacity="0"/>
<stop offset="0.5" stop-color="#F24963"/>
<stop offset="1" stop-color="#E83752" stop-opacity="0"/>
</linearGradient>
<linearGradient id="paint1_linear_1300_419" x1="353" y1="177" x2="388.736" y2="626.157" gradientUnits="userSpaceOnUse">
<stop stop-color="#FA5770" stop-opacity="0"/>
<stop offset="0.5" stop-color="#F24963"/>
<stop offset="1" stop-color="#E83752" stop-opacity="0"/>
</linearGradient>
<linearGradient id="paint2_linear_1300_419" x1="249" y1="177" x2="284.736" y2="626.157" gradientUnits="userSpaceOnUse">
<stop stop-color="#FA5770" stop-opacity="0"/>
<stop offset="0.5" stop-color="#F24963"/>
<stop offset="1" stop-color="#E83752" stop-opacity="0"/>
</linearGradient>
<linearGradient id="paint3_linear_1300_419" x1="145" y1="177" x2="180.736" y2="626.157" gradientUnits="userSpaceOnUse">
<stop stop-color="#FA5770" stop-opacity="0"/>
<stop offset="0.5" stop-color="#F24963"/>
<stop offset="1" stop-color="#E83752" stop-opacity="0"/>
</linearGradient>
<linearGradient id="paint4_linear_1300_419" x1="41" y1="177" x2="76.7364" y2="626.157" gradientUnits="userSpaceOnUse">
<stop stop-color="#FA5770" stop-opacity="0"/>
<stop offset="0.5" stop-color="#F24963"/>
<stop offset="1" stop-color="#E83752" stop-opacity="0"/>
</linearGradient>
<linearGradient id="paint5_linear_1300_419" x1="561" y1="177" x2="596.736" y2="626.157" gradientUnits="userSpaceOnUse">
<stop stop-color="#FA5770" stop-opacity="0"/>
<stop offset="0.5" stop-color="#F24963"/>
<stop offset="1" stop-color="#E83752" stop-opacity="0"/>
</linearGradient>
<linearGradient id="paint6_linear_1300_419" x1="77" y1="404" x2="13.8605" y2="427.653" gradientUnits="userSpaceOnUse">
<stop stop-color="#FA5770"/>
<stop offset="1" stop-color="#E83752"/>
</linearGradient>
<linearGradient id="paint7_linear_1300_419" x1="181" y1="404" x2="117.86" y2="427.653" gradientUnits="userSpaceOnUse">
<stop stop-color="#FA5770"/>
<stop offset="1" stop-color="#E83752"/>
</linearGradient>
<linearGradient id="paint8_linear_1300_419" x1="285" y1="404" x2="221.86" y2="427.653" gradientUnits="userSpaceOnUse">
<stop stop-color="#FA5770"/>
<stop offset="1" stop-color="#E83752"/>
</linearGradient>
<linearGradient id="paint9_linear_1300_419" x1="389" y1="404" x2="325.86" y2="427.653" gradientUnits="userSpaceOnUse">
<stop stop-color="#FA5770"/>
<stop offset="1" stop-color="#E83752"/>
</linearGradient>
<linearGradient id="paint10_linear_1300_419" x1="38.5" y1="253" x2="38.5" y2="318" gradientUnits="userSpaceOnUse">
<stop stop-color="#2C2C2C"/>
<stop offset="1" stop-color="#2C2C2C" stop-opacity="0"/>
</linearGradient>
<linearGradient id="paint11_linear_1300_419" x1="35" y1="483" x2="35" y2="555" gradientUnits="userSpaceOnUse">
<stop stop-color="#2C2C2C"/>
<stop offset="1" stop-color="#2C2C2C" stop-opacity="0"/>
</linearGradient>
<linearGradient id="paint12_linear_1300_419" x1="145" y1="487" x2="145" y2="552" gradientUnits="userSpaceOnUse">
<stop stop-color="#2C2C2C"/>
<stop offset="1" stop-color="#2C2C2C" stop-opacity="0"/>
</linearGradient>
<linearGradient id="paint13_linear_1300_419" x1="256.5" y1="485" x2="256.5" y2="553" gradientUnits="userSpaceOnUse">
<stop stop-color="#2C2C2C"/>
<stop offset="1" stop-color="#2C2C2C" stop-opacity="0"/>
</linearGradient>
<linearGradient id="paint14_linear_1300_419" x1="353.5" y1="484" x2="353.5" y2="555" gradientUnits="userSpaceOnUse">
<stop stop-color="#2C2C2C"/>
<stop offset="1" stop-color="#2C2C2C" stop-opacity="0"/>
</linearGradient>
<linearGradient id="paint15_linear_1300_419" x1="144.25" y1="248" x2="144.25" y2="323" gradientUnits="userSpaceOnUse">
<stop stop-color="#2C2C2C"/>
<stop offset="1" stop-color="#2C2C2C" stop-opacity="0"/>
</linearGradient>
<linearGradient id="paint16_linear_1300_419" x1="256" y1="606" x2="256" y2="684" gradientUnits="userSpaceOnUse">
<stop stop-color="#2C2C2C"/>
<stop offset="1" stop-color="#2C2C2C" stop-opacity="0"/>
</linearGradient>
<linearGradient id="paint17_linear_1300_419" x1="245" y1="250" x2="245" y2="322" gradientUnits="userSpaceOnUse">
<stop stop-color="#2C2C2C"/>
<stop offset="1" stop-color="#2C2C2C" stop-opacity="0"/>
</linearGradient>
<linearGradient id="paint18_linear_1300_419" x1="145" y1="609" x2="145" y2="681" gradientUnits="userSpaceOnUse">
<stop stop-color="#2C2C2C"/>
<stop offset="1" stop-color="#2C2C2C" stop-opacity="0"/>
</linearGradient>
<linearGradient id="paint19_linear_1300_419" x1="34.5" y1="613" x2="34.5" y2="678" gradientUnits="userSpaceOnUse">
<stop stop-color="#2C2C2C"/>
<stop offset="1" stop-color="#2C2C2C" stop-opacity="0"/>
</linearGradient>
<linearGradient id="paint20_linear_1300_419" x1="353.25" y1="608" x2="353.25" y2="683" gradientUnits="userSpaceOnUse">
<stop stop-color="#2C2C2C"/>
<stop offset="1" stop-color="#2C2C2C" stop-opacity="0"/>
</linearGradient>
<linearGradient id="paint21_linear_1300_419" x1="351.5" y1="252" x2="351.5" y2="320" gradientUnits="userSpaceOnUse">
<stop stop-color="#2C2C2C"/>
<stop offset="1" stop-color="#2C2C2C" stop-opacity="0"/>
</linearGradient>
<linearGradient id="paint22_linear_1300_419" x1="38.5" y1="131" x2="38.5" y2="202" gradientUnits="userSpaceOnUse">
<stop stop-color="#2C2C2C"/>
<stop offset="1" stop-color="#2C2C2C" stop-opacity="0"/>
</linearGradient>
<linearGradient id="paint23_linear_1300_419" x1="144" y1="127" x2="144" y2="205" gradientUnits="userSpaceOnUse">
<stop stop-color="#2C2C2C"/>
<stop offset="1" stop-color="#2C2C2C" stop-opacity="0"/>
</linearGradient>
<linearGradient id="paint24_linear_1300_419" x1="245" y1="134" x2="245" y2="199" gradientUnits="userSpaceOnUse">
<stop stop-color="#2C2C2C"/>
<stop offset="1" stop-color="#2C2C2C" stop-opacity="0"/>
</linearGradient>
<linearGradient id="paint25_linear_1300_419" x1="351" y1="130" x2="351" y2="202" gradientUnits="userSpaceOnUse">
<stop stop-color="#2C2C2C"/>
<stop offset="1" stop-color="#2C2C2C" stop-opacity="0"/>
</linearGradient>
<linearGradient id="paint26_linear_1300_419" x1="493" y1="404" x2="429.86" y2="427.653" gradientUnits="userSpaceOnUse">
<stop stop-color="#FA5770"/>
<stop offset="1" stop-color="#E83752"/>
</linearGradient>
<linearGradient id="paint27_linear_1300_419" x1="597" y1="404" x2="533.86" y2="427.653" gradientUnits="userSpaceOnUse">
<stop stop-color="#FA5770"/>
<stop offset="1" stop-color="#E83752"/>
</linearGradient>
<linearGradient id="paint28_linear_1300_419" x1="457.25" y1="482" x2="457.25" y2="557" gradientUnits="userSpaceOnUse">
<stop stop-color="#2C2C2C"/>
<stop offset="1" stop-color="#2C2C2C" stop-opacity="0"/>
</linearGradient>
<linearGradient id="paint29_linear_1300_419" x1="452.5" y1="250" x2="452.5" y2="321" gradientUnits="userSpaceOnUse">
<stop stop-color="#2C2C2C"/>
<stop offset="1" stop-color="#2C2C2C" stop-opacity="0"/>
</linearGradient>
<linearGradient id="paint30_linear_1300_419" x1="561" y1="480" x2="561" y2="558" gradientUnits="userSpaceOnUse">
<stop stop-color="#2C2C2C"/>
<stop offset="1" stop-color="#2C2C2C" stop-opacity="0"/>
</linearGradient>
<linearGradient id="paint31_linear_1300_419" x1="31" y1="8" x2="31" y2="80" gradientUnits="userSpaceOnUse">
<stop stop-color="#2C2C2C"/>
<stop offset="1" stop-color="#2C2C2C" stop-opacity="0"/>
</linearGradient>
<linearGradient id="paint32_linear_1300_419" x1="141" y1="12" x2="141" y2="77" gradientUnits="userSpaceOnUse">
<stop stop-color="#2C2C2C"/>
<stop offset="1" stop-color="#2C2C2C" stop-opacity="0"/>
</linearGradient>
<linearGradient id="paint33_linear_1300_419" x1="252.5" y1="10" x2="252.5" y2="78" gradientUnits="userSpaceOnUse">
<stop stop-color="#2C2C2C"/>
<stop offset="1" stop-color="#2C2C2C" stop-opacity="0"/>
</linearGradient>
<linearGradient id="paint34_linear_1300_419" x1="349.5" y1="9" x2="349.5" y2="80" gradientUnits="userSpaceOnUse">
<stop stop-color="#2C2C2C"/>
<stop offset="1" stop-color="#2C2C2C" stop-opacity="0"/>
</linearGradient>
<linearGradient id="paint35_linear_1300_419" x1="453.25" y1="7" x2="453.25" y2="82" gradientUnits="userSpaceOnUse">
<stop stop-color="#2C2C2C"/>
<stop offset="1" stop-color="#2C2C2C" stop-opacity="0"/>
</linearGradient>
<linearGradient id="paint36_linear_1300_419" x1="557" y1="5" x2="557" y2="83" gradientUnits="userSpaceOnUse">
<stop stop-color="#2C2C2C"/>
<stop offset="1" stop-color="#2C2C2C" stop-opacity="0"/>
</linearGradient>
<linearGradient id="paint37_linear_1300_419" x1="461.5" y1="611" x2="461.5" y2="679" gradientUnits="userSpaceOnUse">
<stop stop-color="#2C2C2C"/>
<stop offset="1" stop-color="#2C2C2C" stop-opacity="0"/>
</linearGradient>
<linearGradient id="paint38_linear_1300_419" x1="564" y1="253" x2="564" y2="318" gradientUnits="userSpaceOnUse">
<stop stop-color="#2C2C2C"/>
<stop offset="1" stop-color="#2C2C2C" stop-opacity="0"/>
</linearGradient>
<linearGradient id="paint39_linear_1300_419" x1="560" y1="609" x2="560" y2="681" gradientUnits="userSpaceOnUse">
<stop stop-color="#2C2C2C"/>
<stop offset="1" stop-color="#2C2C2C" stop-opacity="0"/>
</linearGradient>
<linearGradient id="paint40_linear_1300_419" x1="449" y1="130" x2="449" y2="202" gradientUnits="userSpaceOnUse">
<stop stop-color="#2C2C2C"/>
<stop offset="1" stop-color="#2C2C2C" stop-opacity="0"/>
</linearGradient>
<linearGradient id="paint41_linear_1300_419" x1="559" y1="127" x2="559" y2="205" gradientUnits="userSpaceOnUse">
<stop stop-color="#2C2C2C"/>
<stop offset="1" stop-color="#2C2C2C" stop-opacity="0"/>
</linearGradient>
<linearGradient id="paint42_linear_1300_419" x1="46.5" y1="729" x2="46.5" y2="800" gradientUnits="userSpaceOnUse">
<stop stop-color="#2C2C2C"/>
<stop offset="1" stop-color="#2C2C2C" stop-opacity="0"/>
</linearGradient>
<linearGradient id="paint43_linear_1300_419" x1="152" y1="725" x2="152" y2="803" gradientUnits="userSpaceOnUse">
<stop stop-color="#2C2C2C"/>
<stop offset="1" stop-color="#2C2C2C" stop-opacity="0"/>
</linearGradient>
<linearGradient id="paint44_linear_1300_419" x1="253" y1="732" x2="253" y2="797" gradientUnits="userSpaceOnUse">
<stop stop-color="#2C2C2C"/>
<stop offset="1" stop-color="#2C2C2C" stop-opacity="0"/>
</linearGradient>
<linearGradient id="paint45_linear_1300_419" x1="359" y1="728" x2="359" y2="800" gradientUnits="userSpaceOnUse">
<stop stop-color="#2C2C2C"/>
<stop offset="1" stop-color="#2C2C2C" stop-opacity="0"/>
</linearGradient>
<linearGradient id="paint46_linear_1300_419" x1="457" y1="728" x2="457" y2="800" gradientUnits="userSpaceOnUse">
<stop stop-color="#2C2C2C"/>
<stop offset="1" stop-color="#2C2C2C" stop-opacity="0"/>
</linearGradient>
<linearGradient id="paint47_linear_1300_419" x1="567" y1="725" x2="567" y2="803" gradientUnits="userSpaceOnUse">
<stop stop-color="#2C2C2C"/>
<stop offset="1" stop-color="#2C2C2C" stop-opacity="0"/>
</linearGradient>
</defs>
</svg>
