<svg width="24" height="24" viewBox="0 0 24 24" fill="none" xmlns="http://www.w3.org/2000/svg">
<path d="M20.309 17.708C22.196 15.66 22.006 13.03 22 13V5C22 4.73478 21.8947 4.48043 21.7071 4.29289C21.5196 4.10536 21.2653 4 21 4H15C13.897 4 13 4.897 13 6V13C13 13.2652 13.1054 13.5196 13.2929 13.7071C13.4805 13.8946 13.7348 14 14 14H17.078C17.0569 14.4944 16.9092 14.9751 16.649 15.396C16.141 16.197 15.184 16.744 13.803 17.02L13 17.18V20H14C16.783 20 18.906 19.229 20.309 17.708ZM9.30204 17.708C11.19 15.66 10.999 13.03 10.993 13V5C10.993 4.73478 10.8877 4.48043 10.7001 4.29289C10.5126 4.10536 10.2583 4 9.99304 4H3.99304C2.89004 4 1.99304 4.897 1.99304 6V13C1.99304 13.2652 2.0984 13.5196 2.28594 13.7071C2.47347 13.8946 2.72783 14 2.99304 14H6.07104C6.04991 14.4944 5.9022 14.9751 5.64204 15.396C5.13404 16.197 4.17704 16.744 2.79604 17.02L1.99304 17.18V20H2.99304C5.77604 20 7.89904 19.229 9.30204 17.708V17.708Z" fill="#E83752"/>
</svg>
